<svg width="30" height="30" viewBox="0 0 30 30" fill="none" xmlns="http://www.w3.org/2000/svg">
<g clip-path="url(#clip0_560_1164)">
<path d="M0 10.0625C0 6.50318 0 4.72352 0.703666 3.36891C1.29664 2.22739 2.22739 1.29664 3.36891 0.703666C4.72352 0 6.50318 0 10.0625 0H19.9375C23.4968 0 25.2765 0 26.6311 0.703666C27.7726 1.29664 28.7034 2.22739 29.2963 3.36891C30 4.72352 30 6.50318 30 10.0625V19.9375C30 23.4968 30 25.2765 29.2963 26.6311C28.7034 27.7726 27.7726 28.7034 26.6311 29.2963C25.2765 30 23.4968 30 19.9375 30H10.0625C6.50318 30 4.72352 30 3.36891 29.2963C2.22739 28.7034 1.29664 27.7726 0.703666 26.6311C0 25.2765 0 23.4968 0 19.9375V10.0625Z" fill="black"/>
<path d="M9.10225 17.9629C9.22433 16.952 9.63892 16.3861 10.4202 15.8059C11.538 15.0201 12.9344 15.4646 12.9344 15.4646V12.8277C13.2739 12.8191 13.6135 12.8392 13.9493 12.8879V16.2812C13.9493 16.2812 12.5533 15.8368 11.4355 16.6229C10.6546 17.2027 10.2392 17.7691 10.1175 18.78C10.1137 19.3289 10.2167 20.0464 10.6911 20.6668C10.5738 20.6066 10.4542 20.5381 10.3324 20.4612C9.2875 19.7595 9.09716 18.7068 9.10225 17.9629ZM19.7149 7.95222C18.9459 7.10957 18.6551 6.25879 18.55 5.66113H19.5174C19.5174 5.66113 19.3245 7.22821 20.7302 8.76928L20.7497 8.79C20.3708 8.55169 20.0234 8.27039 19.7149 7.95222ZM24.375 10.3412V13.6663C24.375 13.6663 23.1405 13.618 22.227 13.3856C20.9515 13.0606 20.1316 12.562 20.1316 12.562C20.1316 12.562 19.5653 12.2065 19.5195 12.1817V19.0481C19.5195 19.4304 19.4148 20.3852 19.0956 21.1816C18.6789 22.2233 18.0358 22.9071 17.9175 23.0469C17.9175 23.0469 17.1354 23.9712 15.7556 24.5936C14.5118 25.1551 13.4198 25.1409 13.0934 25.1551C13.0934 25.1551 11.2057 25.2299 9.50708 24.126C9.13977 23.8827 8.7969 23.6071 8.48291 23.3028L8.49139 23.3089C10.1904 24.4128 12.0777 24.3381 12.0777 24.3381C12.4045 24.3238 13.4965 24.3381 14.7399 23.7766C16.1184 23.1541 16.9018 22.2298 16.9018 22.2298C17.0188 22.09 17.6649 21.4062 18.0799 20.3641C18.3982 19.5682 18.5038 18.613 18.5038 18.2306V11.3651C18.5496 11.3903 19.1155 11.7458 19.1155 11.7458C19.1155 11.7458 19.9358 12.2447 21.2113 12.5693C22.1253 12.8017 23.3593 12.8501 23.3593 12.8501V10.2445C23.7815 10.3392 24.1414 10.3648 24.375 10.3412Z" fill="#FD355A"/>
<path d="M23.3597 10.2445V12.8493C23.3597 12.8493 22.1257 12.8009 21.2117 12.5685C19.9362 12.2435 19.1159 11.745 19.1159 11.745C19.1159 11.745 18.55 11.3895 18.5042 11.3643V18.2315C18.5042 18.6138 18.3995 19.569 18.0803 20.3649C17.6636 21.4071 17.0205 22.0908 16.9022 22.2306C16.9022 22.2306 16.1197 23.1549 14.7403 23.7774C13.4969 24.3389 12.4049 24.3246 12.0781 24.3389C12.0781 24.3389 10.1908 24.4136 8.49178 23.3097L8.48331 23.3036C8.30392 23.1299 8.13507 22.9465 7.97758 22.7543C7.43539 22.0933 7.10305 21.3116 7.01953 21.0885C7.01939 21.0876 7.01939 21.0866 7.01953 21.0857C6.88515 20.6981 6.60283 19.7672 6.6414 18.8657C6.70965 17.275 7.26922 16.2987 7.41716 16.0541C7.80899 15.3871 8.3186 14.7904 8.92333 14.2904C9.45696 13.859 10.0618 13.5157 10.7131 13.2747C11.4171 12.9917 12.171 12.84 12.9344 12.8277V15.4646C12.9344 15.4646 11.538 15.0217 10.4206 15.8059C9.63932 16.3861 9.22473 16.952 9.10264 17.9629C9.09756 18.7068 9.28789 19.7595 10.332 20.4616C10.4538 20.5388 10.5733 20.6073 10.6906 20.6672C10.873 20.9043 11.095 21.1109 11.3477 21.2787C12.3676 21.9243 13.2222 21.9694 14.3151 21.5501C15.0438 21.2697 15.5923 20.6379 15.8467 19.9379C16.0065 19.5007 16.0044 19.0607 16.0044 18.6057V5.66113H18.5478C18.653 6.25879 18.9438 7.10957 19.7128 7.95222C20.0212 8.27039 20.3687 8.55169 20.7475 8.79C20.8594 8.90579 21.4317 9.47826 22.1664 9.82971C22.5462 10.0114 22.9466 10.1506 23.3597 10.2445Z" fill="white"/>
<path d="M6.0072 20.2788V20.2808L6.07031 20.4519C6.06307 20.432 6.03961 20.3714 6.0072 20.2788Z" fill="#33F3ED"/>
<path d="M10.7131 13.2748C10.0619 13.5158 9.45701 13.8591 8.92338 14.2905C8.31846 14.7916 7.80897 15.3896 7.41764 16.0579C7.2697 16.3016 6.71013 17.2788 6.64188 18.8694C6.6033 19.771 6.88563 20.7018 7.02001 21.0894C7.01987 21.0903 7.01987 21.0913 7.02001 21.0922C7.10479 21.3133 7.43587 22.095 7.97805 22.7581C8.13555 22.9503 8.3044 23.1337 8.48378 23.3074C7.90904 22.9264 7.39646 22.4658 6.96278 21.9406C6.42526 21.2852 6.09376 20.5117 6.00728 20.2833C6.00718 20.2817 6.00718 20.2801 6.00728 20.2784V20.2756C5.87248 19.8884 5.5893 18.9572 5.62873 18.0544C5.69698 16.4638 6.25654 15.4874 6.40449 15.2428C6.79571 14.5745 7.30521 13.9765 7.91023 13.4755C8.44375 13.0439 9.04863 12.7006 9.69999 12.4597C10.1063 12.2982 10.5295 12.179 10.9624 12.1042C11.6148 11.9951 12.2811 11.9856 12.9366 12.0762V12.8278C12.1725 12.8398 11.4178 12.9915 10.7131 13.2748Z" fill="#33F3ED"/>
<path d="M18.55 5.66121H16.0065V18.6061C16.0065 19.0612 16.0065 19.5 15.8488 19.9384C15.5919 20.638 15.0455 21.2698 14.3172 21.5501C13.2239 21.9711 12.3693 21.9243 11.3498 21.2787C11.0967 21.1117 10.8741 20.9058 10.691 20.6693C11.5596 21.1134 12.3371 21.1057 13.3002 20.7351C14.0281 20.4548 14.5754 19.823 14.8314 19.1229C14.9916 18.6858 14.9895 18.2458 14.9895 17.7911V4.84375H18.5016C18.5016 4.84375 18.4622 5.16553 18.55 5.66121ZM23.3597 9.52425V10.2446C22.9474 10.1505 22.5477 10.0113 22.1685 9.82979C21.4338 9.47834 20.8616 8.90587 20.7496 8.79008C20.8795 8.8718 21.0143 8.94614 21.1532 9.01273C22.0464 9.44015 22.926 9.56773 23.3597 9.52425Z" fill="#33F3ED"/>
</g>
<defs>
<clipPath id="clip0_560_1164">
<rect width="30" height="30" fill="white"/>
</clipPath>
</defs>
</svg>
