<svg width="30" height="30" viewBox="0 0 30 30" fill="none" xmlns="http://www.w3.org/2000/svg">
<path d="M0 10.0625C0 6.50318 0 4.72352 0.703666 3.36891C1.29664 2.22739 2.22739 1.29664 3.36891 0.703666C4.72352 0 6.50318 0 10.0625 0H19.9375C23.4968 0 25.2765 0 26.6311 0.703666C27.7726 1.29664 28.7034 2.22739 29.2963 3.36891C30 4.72352 30 6.50318 30 10.0625V19.9375C30 23.4968 30 25.2765 29.2963 26.6311C28.7034 27.7726 27.7726 28.7034 26.6311 29.2963C25.2765 30 23.4968 30 19.9375 30H10.0625C6.50318 30 4.72352 30 3.36891 29.2963C2.22739 28.7034 1.29664 27.7726 0.703666 26.6311C0 25.2765 0 23.4968 0 19.9375V10.0625Z" fill="#1EA1F2"/>
<path fill-rule="evenodd" clip-rule="evenodd" d="M23.3269 11.345C23.3341 11.5324 23.3366 11.7197 23.3366 11.9071C23.3366 17.588 19.3403 24.1463 12.0325 24.1463C9.78772 24.1463 7.70036 23.4309 5.94165 22.2129C6.25253 22.247 6.56826 22.2726 6.88884 22.2726C8.7501 22.2726 10.4644 21.5826 11.8242 20.4242C10.0857 20.3987 8.61768 19.1467 8.11138 17.4432C8.35444 17.4943 8.60474 17.52 8.86071 17.52C9.22166 17.52 9.57211 17.4689 9.90802 17.3667C8.08875 16.9749 6.71846 15.2375 6.71846 13.1508C6.71846 13.1252 6.71846 13.1166 6.71846 13.0996C7.25463 13.4147 7.86831 13.6105 8.51996 13.6361C7.45246 12.861 6.75074 11.5409 6.75074 10.0504C6.75074 9.26683 6.94615 8.52581 7.29014 7.88703C9.24911 10.4933 12.1779 12.2052 15.4797 12.3841C15.4119 12.069 15.3772 11.7369 15.3772 11.4047C15.3772 9.02843 17.156 7.10352 19.3508 7.10352C20.4934 7.10352 21.5254 7.62314 22.2497 8.45781C23.1565 8.27044 24.006 7.91274 24.7747 7.41875C24.4767 8.42377 23.8477 9.26679 23.0257 9.79486C23.8299 9.69265 24.5971 9.46286 25.3085 9.12218C24.7747 9.98241 24.1029 10.7403 23.3269 11.345Z" fill="white"/>
</svg>
