<svg width="30" height="30" viewBox="0 0 30 30" fill="none" xmlns="http://www.w3.org/2000/svg">
<path d="M0 10.0625C0 6.50318 0 4.72352 0.703666 3.36891C1.29664 2.22739 2.22739 1.29664 3.36891 0.703666C4.72352 0 6.50318 0 10.0625 0H19.9375C23.4968 0 25.2765 0 26.6311 0.703666C27.7726 1.29664 28.7034 2.22739 29.2963 3.36891C30 4.72352 30 6.50318 30 10.0625V19.9375C30 23.4968 30 25.2765 29.2963 26.6311C28.7034 27.7726 27.7726 28.7034 26.6311 29.2963C25.2765 30 23.4968 30 19.9375 30H10.0625C6.50318 30 4.72352 30 3.36891 29.2963C2.22739 28.7034 1.29664 27.7726 0.703666 26.6311C0 25.2765 0 23.4968 0 19.9375V10.0625Z" fill="#FF0000"/>
<path fill-rule="evenodd" clip-rule="evenodd" d="M23.8035 7.35688C24.7672 7.61635 25.5271 8.37623 25.7866 9.33998C26.2684 11.1007 26.2499 14.7704 26.2499 14.7704C26.2499 14.7704 26.2499 18.4215 25.7866 20.1822C25.5271 21.1459 24.7672 21.9058 23.8035 22.1653C22.0428 22.6286 15 22.6286 15 22.6286C15 22.6286 7.97568 22.6286 6.19645 22.1468C5.2327 21.8873 4.47281 21.1274 4.21334 20.1637C3.75 18.4215 3.75 14.7518 3.75 14.7518C3.75 14.7518 3.75 11.1007 4.21334 9.33998C4.47281 8.37623 5.25123 7.59781 6.19645 7.33834C7.95715 6.875 15 6.875 15 6.875C15 6.875 22.0428 6.875 23.8035 7.35688ZM18.614 14.6231L12.7574 17.9963V11.25L18.614 14.6231Z" fill="white"/>
</svg>
