<svg width="30" height="30" viewBox="0 0 30 30" fill="none" xmlns="http://www.w3.org/2000/svg">
<path d="M13.125 26.125C7.8125 25.1875 3.75 20.5625 3.75 15C3.75 8.8125 8.8125 3.75 15 3.75C21.1875 3.75 26.25 8.8125 26.25 15C26.25 20.5625 22.1875 25.1875 16.875 26.125L16.25 25.625H13.75L13.125 26.125Z" fill="url(#paint0_linear_535_667)"/>
<path d="M19.375 18.125L19.875 15H16.875V12.8125C16.875 11.9375 17.1875 11.25 18.5625 11.25H20V8.375C19.1875 8.25 18.3125 8.125 17.5 8.125C14.9375 8.125 13.125 9.6875 13.125 12.5V15H10.3125V18.125H13.125V26.0625C13.75 26.1875 14.375 26.25 15 26.25C15.625 26.25 16.25 26.1875 16.875 26.0625V18.125H19.375Z" fill="white"/>
<defs>
<linearGradient id="paint0_linear_535_667" x1="15" y1="25.4712" x2="15" y2="3.75" gradientUnits="userSpaceOnUse">
<stop stop-color="#0062E0"/>
<stop offset="1" stop-color="#19AFFF"/>
</linearGradient>
</defs>
</svg>
