<svg width="30" height="30" viewBox="0 0 30 30" fill="none" xmlns="http://www.w3.org/2000/svg">
<path d="M0 10.0625C0 6.50318 0 4.72352 0.703666 3.36891C1.29664 2.22739 2.22739 1.29664 3.36891 0.703666C4.72352 0 6.50318 0 10.0625 0H19.9375C23.4968 0 25.2765 0 26.6311 0.703666C27.7726 1.29664 28.7034 2.22739 29.2963 3.36891C30 4.72352 30 6.50318 30 10.0625V19.9375C30 23.4968 30 25.2765 29.2963 26.6311C28.7034 27.7726 27.7726 28.7034 26.6311 29.2963C25.2765 30 23.4968 30 19.9375 30H10.0625C6.50318 30 4.72352 30 3.36891 29.2963C2.22739 28.7034 1.29664 27.7726 0.703666 26.6311C0 25.2765 0 23.4968 0 19.9375V10.0625Z" fill="url(#paint0_linear_560_1107)"/>
<path d="M20.8333 19.1666L21.5 14.9999H17.5V12.0833C17.5 10.9166 17.9167 9.99992 19.75 9.99992H21.6667V6.16659C20.5833 5.99992 19.4167 5.83325 18.3333 5.83325C14.9167 5.83325 12.5 7.91659 12.5 11.6666V14.9999H8.75V19.1666H12.5V29.9999C14.1667 29.9999 15.8333 29.9999 17.5 29.9999V19.1666H20.8333Z" fill="white"/>
<defs>
<linearGradient id="paint0_linear_560_1107" x1="15" y1="29.1235" x2="15" y2="0" gradientUnits="userSpaceOnUse">
<stop stop-color="#0062E0"/>
<stop offset="1" stop-color="#19AFFF"/>
</linearGradient>
</defs>
</svg>
