<svg width="30" height="30" viewBox="0 0 30 30" fill="none" xmlns="http://www.w3.org/2000/svg">
<path d="M15 0C6.55125 0 0 6.19108 0 14.5496C0 18.922 1.7925 22.7019 4.71 25.3118C4.95375 25.5293 5.10375 25.8368 5.11125 26.1668L5.19375 28.8367C5.19976 29.0332 5.25393 29.2251 5.3515 29.3957C5.44907 29.5663 5.58706 29.7104 5.75333 29.8152C5.91961 29.92 6.10908 29.9823 6.3051 29.9968C6.50111 30.0112 6.69767 29.9773 6.8775 29.8979L9.855 28.5855C10.1062 28.473 10.3913 28.4542 10.6575 28.5255C12.0263 28.9005 13.4813 29.103 15 29.103C23.4488 29.103 30 22.9119 30 14.5534C30 6.19483 23.4488 0 15 0Z" fill="url(#paint0_radial_819_964)"/>
<path d="M5.9925 18.8057L10.3987 11.8159C10.5645 11.5528 10.783 11.3268 11.0405 11.1524C11.298 10.9779 11.5888 10.8587 11.8947 10.8024C12.2006 10.746 12.5148 10.7536 12.8176 10.8248C13.1203 10.896 13.4051 11.0292 13.6537 11.2159L17.16 13.8446C17.3165 13.9618 17.507 14.0248 17.7025 14.0242C17.898 14.0235 18.088 13.9591 18.2437 13.8409L22.9762 10.2485C23.6062 9.76848 24.4312 10.526 24.0112 11.1972L19.6012 18.1833C19.4355 18.4464 19.217 18.6724 18.9595 18.8468C18.702 19.0213 18.4112 19.1404 18.1053 19.1968C17.7994 19.2532 17.4852 19.2456 17.1824 19.1744C16.8797 19.1032 16.5949 18.97 16.3462 18.7832L12.84 16.1546C12.6835 16.0374 12.493 15.9743 12.2975 15.975C12.102 15.9757 11.912 16.04 11.7563 16.1583L7.02375 19.7507C6.39375 20.2307 5.56875 19.477 5.9925 18.8057Z" fill="white"/>
<defs>
<radialGradient id="paint0_radial_819_964" cx="0" cy="0" r="1" gradientUnits="userSpaceOnUse" gradientTransform="translate(5.025 29.9992) scale(33 32.9991)">
<stop stop-color="#0099FF"/>
<stop offset="0.6" stop-color="#A033FF"/>
<stop offset="0.9" stop-color="#FF5280"/>
<stop offset="1" stop-color="#FF7061"/>
</radialGradient>
</defs>
</svg>
