<svg width="27" height="27" viewBox="0 0 27 27" fill="none" xmlns="http://www.w3.org/2000/svg">
<path d="M13.5 26C6.59675 26 1 20.4032 1 13.5C1 6.59676 6.59675 1 13.5 1C20.4032 1 26 6.59676 26 13.5C26 20.4032 20.4032 26 13.5 26Z" stroke="#5F5F5F" stroke-width="1.5" stroke-miterlimit="10"/>
<path d="M13.5 26C10.0103 26 6.729 20.4032 6.729 13.5C6.729 6.59676 10.0103 1 13.5 1C16.9898 1 20.2711 6.59676 20.2711 13.5C20.2711 20.4032 16.9898 26 13.5 26Z" stroke="#5F5F5F" stroke-width="1.5" stroke-miterlimit="10"/>
<path d="M5.1665 21.8335C7.46458 20.2019 10.3576 19.2289 13.5 19.2289C16.6425 19.2289 19.5355 20.2019 21.8336 21.8335M21.8336 5.16643C19.5355 6.79804 16.6425 7.771 13.5 7.771C10.3576 7.771 7.46458 6.79804 5.1665 5.16643" stroke="#5F5F5F" stroke-width="1.5" stroke-linecap="round" stroke-linejoin="round"/>
<path d="M13.5 26V1M26 13.5H1" stroke="#5F5F5F" stroke-width="1.5" stroke-miterlimit="10"/>
</svg>
