<svg width="30" height="30" viewBox="0 0 30 30" fill="none" xmlns="http://www.w3.org/2000/svg">
<path fill-rule="evenodd" clip-rule="evenodd" d="M25.2 15.2414C25.2 14.488 25.1324 13.7636 25.0068 13.0681H15V17.1781H20.7182C20.4719 18.5062 19.7233 19.6315 18.598 20.3849V23.0508H22.0318C24.0409 21.2011 25.2 18.4772 25.2 15.2414Z" fill="#4285F4"/>
<path fill-rule="evenodd" clip-rule="evenodd" d="M15 25.6251C17.8687 25.6251 20.2739 24.6736 22.0318 23.0509L18.598 20.385C17.6466 21.0225 16.4295 21.3992 15 21.3992C12.2327 21.3992 9.89032 19.5302 9.05481 17.0188H5.50508V19.7716C7.25338 23.2441 10.8466 25.6251 15 25.6251Z" fill="#34A853"/>
<path fill-rule="evenodd" clip-rule="evenodd" d="M9.05481 17.0189C8.84231 16.3814 8.72157 15.7004 8.72157 15.0001C8.72157 14.2998 8.84231 13.6189 9.05481 12.9814V10.2285H5.50508C4.78548 11.6629 4.37497 13.2856 4.37497 15.0001C4.37497 16.7146 4.78548 18.3373 5.50508 19.7717L9.05481 17.0189Z" fill="#FBBC05"/>
<path fill-rule="evenodd" clip-rule="evenodd" d="M15 8.60086C16.5599 8.60086 17.9605 9.13694 19.0616 10.1898L22.1091 7.14233C20.269 5.42784 17.8639 4.375 15 4.375C10.8466 4.375 7.25338 6.75597 5.50508 10.2284L9.05481 12.9813C9.89032 10.4699 12.2327 8.60086 15 8.60086Z" fill="#EA4335"/>
</svg>
