<svg width="30" height="22" viewBox="0 0 30 22" fill="none" xmlns="http://www.w3.org/2000/svg">
<path d="M29.3748 3.28708C29.0312 1.99522 28.0146 0.976077 26.7213 0.626794C24.3828 2.28152e-07 15 0 15 0C15 0 5.62202 2.28152e-07 3.27871 0.626794C1.99014 0.971292 0.973592 1.99043 0.625199 3.28708C0 5.63158 0 10.5263 0 10.5263C0 10.5263 0 15.4211 0.625199 17.7655C0.96882 19.0574 1.98536 20.0766 3.27871 20.4258C5.62202 21.0526 15 21.0526 15 21.0526C15 21.0526 24.3828 21.0526 26.7213 20.4258C28.0099 20.0813 29.0264 19.0622 29.3748 17.7655C30 15.4211 30 10.5263 30 10.5263C30 10.5263 30 5.63158 29.3748 3.28708Z" fill="#FF3000"/>
<path d="M12.0029 15.0383L19.7964 10.5263L12.0029 6.01435V15.0383Z" fill="white"/>
</svg>
