<svg width="25" height="25" viewBox="0 0 25 25" fill="none" xmlns="http://www.w3.org/2000/svg">
<path fill-rule="evenodd" clip-rule="evenodd" d="M20.2749 17.4451C21.5799 12.5751 18.4899 7.54509 13.4136 6.18509C7.68114 4.64759 -0.455114 8.64009 1.35489 13.7613C1.95489 15.4551 3.10989 15.8513 5.28864 15.8826L5.42489 15.8851C6.57614 15.8988 6.89989 15.9738 6.99739 16.1313C7.15614 16.3913 7.15864 16.8051 6.97989 17.9438C6.89489 18.4813 6.86739 18.6688 6.83489 18.9626C6.63614 20.7513 6.93864 22.1463 8.10989 23.4088C11.7699 27.3501 18.8011 22.9426 20.2749 17.4451ZM3.71239 12.9263C2.80114 10.3513 8.63239 7.49009 12.7661 8.59759C16.5374 9.60884 18.7986 13.2901 17.8599 16.7963C16.8124 20.7063 11.8824 23.7963 9.94239 21.7063C9.34239 21.0613 9.19364 20.3713 9.31989 19.2376C9.34614 18.9951 9.37114 18.8276 9.44989 18.3301C9.72364 16.5838 9.71989 15.7863 9.12739 14.8226C8.38489 13.6138 7.50239 13.4101 5.45614 13.3838L5.32364 13.3813C4.11864 13.3651 3.83239 13.2663 3.71114 12.9263H3.71239Z" fill="white"/>
<path d="M7.5 12.5001C7.0856 12.5001 6.68817 12.3355 6.39515 12.0424C6.10212 11.7494 5.9375 11.352 5.9375 10.9376C5.9375 10.5232 6.10212 10.1257 6.39515 9.83272C6.68817 9.53969 7.0856 9.37507 7.5 9.37507C7.9144 9.37507 8.31183 9.53969 8.60485 9.83272C8.89788 10.1257 9.0625 10.5232 9.0625 10.9376C9.0625 11.352 8.89788 11.7494 8.60485 12.0424C8.31183 12.3355 7.9144 12.5001 7.5 12.5001ZM12.1875 12.5001C11.7731 12.5001 11.3757 12.3355 11.0826 12.0424C10.7896 11.7494 10.625 11.352 10.625 10.9376C10.625 10.5232 10.7896 10.1257 11.0826 9.83272C11.3757 9.53969 11.7731 9.37507 12.1875 9.37507C12.6019 9.37507 12.9993 9.53969 13.2924 9.83272C13.5854 10.1257 13.75 10.5232 13.75 10.9376C13.75 11.352 13.5854 11.7494 13.2924 12.0424C12.9993 12.3355 12.6019 12.5001 12.1875 12.5001ZM15.3125 16.2501C14.8981 16.2501 14.5007 16.0855 14.2076 15.7924C13.9146 15.4994 13.75 15.102 13.75 14.6876C13.75 14.2732 13.9146 13.8757 14.2076 13.5827C14.5007 13.2897 14.8981 13.1251 15.3125 13.1251C15.7269 13.1251 16.1243 13.2897 16.4174 13.5827C16.7104 13.8757 16.875 14.2732 16.875 14.6876C16.875 15.102 16.7104 15.4994 16.4174 15.7924C16.1243 16.0855 15.7269 16.2501 15.3125 16.2501ZM13.4375 20.6251C13.0231 20.6251 12.6257 20.4605 12.3326 20.1674C12.0396 19.8744 11.875 19.477 11.875 19.0626C11.875 18.6482 12.0396 18.2507 12.3326 17.9577C12.6257 17.6647 13.0231 17.5001 13.4375 17.5001C13.8519 17.5001 14.2493 17.6647 14.5424 17.9577C14.8354 18.2507 15 18.6482 15 19.0626C15 19.477 14.8354 19.8744 14.5424 20.1674C14.2493 20.4605 13.8519 20.6251 13.4375 20.6251ZM17.9625 4.50632C18.1107 4.42692 18.2734 4.37823 18.4409 4.36317C18.6084 4.34812 18.7772 4.36701 18.9372 4.41871C19.0971 4.47041 19.2451 4.55385 19.3721 4.66406C19.4991 4.77426 19.6025 4.90895 19.6763 5.06007L24.7925 15.5601C24.8779 15.7488 24.8883 15.963 24.8214 16.1591C24.7546 16.3552 24.6156 16.5184 24.4327 16.6157C24.2497 16.713 24.0367 16.7369 23.8367 16.6827C23.6368 16.6285 23.465 16.5002 23.3562 16.3238L17.4713 6.23632C17.3867 6.09121 17.3322 5.93051 17.3113 5.76385C17.2903 5.59719 17.3032 5.42802 17.3492 5.26646C17.3951 5.10491 17.4733 4.95431 17.5789 4.82369C17.6845 4.69307 17.8154 4.58512 17.9638 4.50632H17.9625Z" fill="white"/>
<path fill-rule="evenodd" clip-rule="evenodd" d="M15.6713 4.35501C16.28 5.49876 17.3038 5.81876 18.2938 5.29251C19.2825 4.76751 19.5913 3.73876 18.9825 2.59501C18.2875 1.28501 16.7975 0.0975084 15.81 0.621258C14.8225 1.14626 14.975 3.04501 15.6725 4.35501H15.6713ZM16.775 3.76751C16.5537 3.32306 16.418 2.84091 16.375 2.34626C16.3564 2.13947 16.364 1.93116 16.3975 1.72626L16.42 1.73751C16.4825 1.76751 16.6763 1.85751 16.9238 2.05501C17.3013 2.35626 17.6763 2.80001 17.8788 3.18126C18.165 3.71876 18.0838 3.98876 17.7063 4.19001C17.3313 4.39001 17.0613 4.30501 16.775 3.76876V3.76751Z" fill="white"/>
</svg>
