<svg width="15" height="15" viewBox="0 0 15 15" fill="none" xmlns="http://www.w3.org/2000/svg">
<path d="M5.80041 7.5C5.80041 7.06488 5.97326 6.64758 6.28094 6.3399C6.58861 6.03223 7.00591 5.85938 7.44103 5.85938C7.87615 5.85938 8.29345 6.03223 8.60113 6.3399C8.90881 6.64758 9.08166 7.06488 9.08166 7.5C9.08166 7.93512 8.90881 8.35242 8.60113 8.6601C8.29345 8.96777 7.87615 9.14062 7.44103 9.14062C7.00591 9.14062 6.58861 8.96777 6.28094 8.6601C5.97326 8.35242 5.80041 7.93512 5.80041 7.5ZM13.8014 7.87793C12.4127 10.8032 10.3136 12.2754 7.49963 12.2754C4.6842 12.2754 2.58654 10.8032 1.19787 7.87646C1.14217 7.75852 1.11328 7.6297 1.11328 7.49927C1.11328 7.36883 1.14217 7.24002 1.19787 7.12207C2.58654 4.19678 4.68566 2.72461 7.49963 2.72461C10.3151 2.72461 12.4127 4.19678 13.8014 7.12354C13.9142 7.36084 13.9142 7.63623 13.8014 7.87793ZM7.44103 4.92188C6.0172 4.92188 4.86291 6.07617 4.86291 7.5C4.86291 8.92383 6.0172 10.0781 7.44103 10.0781C8.86486 10.0781 10.0192 8.92383 10.0192 7.5C10.0192 6.07617 8.86486 4.92188 7.44103 4.92188Z" fill="white"/>
</svg>
