<svg width="15" height="16" viewBox="0 0 15 16" fill="none" xmlns="http://www.w3.org/2000/svg">
<g clip-path="url(#clip0_3154_8919)">
<path d="M10.6539 3.64209L1.7394 12.5786L1.19922 13.8863L2.50693 13.3461L11.4434 4.43157L10.6539 3.64209Z" stroke="#FFB300" stroke-width="2.07683" stroke-linecap="round" stroke-linejoin="round"/>
<path d="M12.439 1.85863L12.0527 2.24452L12.8422 3.034L13.2284 2.64778C13.3298 2.54636 13.3867 2.40886 13.3867 2.26549C13.3867 2.12211 13.3298 1.98461 13.2284 1.88319L13.2039 1.85863C13.1536 1.8084 13.094 1.76855 13.0284 1.74137C12.9628 1.71419 12.8924 1.7002 12.8214 1.7002C12.7504 1.7002 12.68 1.71419 12.6144 1.74137C12.5488 1.76855 12.4892 1.8084 12.439 1.85863Z" stroke="#FFB300" stroke-width="2.07683" stroke-linecap="round" stroke-linejoin="round"/>
</g>
<defs>
<clipPath id="clip0_3154_8919">
<rect width="15" height="15" fill="white" transform="translate(0 0.5)"/>
</clipPath>
</defs>
</svg>
