<svg width="29" height="29" viewBox="0 0 29 29" fill="none" xmlns="http://www.w3.org/2000/svg">
<path d="M14.5 29C22.5081 29 29 22.5081 29 14.5C29 6.49187 22.5081 0 14.5 0C6.49187 0 0 6.49187 0 14.5C0 22.5081 6.49187 29 14.5 29Z" fill="#DEDEDE"/>
<path d="M22.0825 11.5934V19.7235C22.0823 20.0828 21.9395 20.4274 21.6854 20.6815C21.4313 20.9355 21.0868 21.0783 20.7275 21.0785H8.98393C8.62462 21.0783 8.28007 20.9355 8.026 20.6815C7.77192 20.4274 7.6291 20.0828 7.62891 19.7235V11.5934C7.6291 11.234 7.77192 10.8895 8.026 10.6354C8.28007 10.3814 8.62462 10.2385 8.98393 10.2383H11.4714L11.8187 9.30962C11.9152 9.0521 12.0879 8.83012 12.3138 8.67327C12.5397 8.51641 12.8081 8.43212 13.0831 8.43164H16.6262C16.9017 8.43153 17.1706 8.51554 17.3971 8.67244C17.6236 8.82934 17.7967 9.05164 17.8935 9.30962L18.2436 10.2383H20.7282C21.0874 10.2387 21.4318 10.3816 21.6857 10.6357C21.9396 10.8897 22.0823 11.2342 22.0825 11.5934ZM18.24 15.6584C18.24 14.9884 18.0413 14.3334 17.669 13.7762C17.2968 13.2191 16.7676 12.7848 16.1486 12.5284C15.5295 12.272 14.8483 12.2049 14.1911 12.3356C13.5339 12.4663 12.9303 12.789 12.4565 13.2628C11.9826 13.7366 11.66 14.3403 11.5293 14.9975C11.3985 15.6547 11.4656 16.3359 11.722 16.9549C11.9785 17.574 12.4127 18.1031 12.9699 18.4754C13.527 18.8477 14.182 19.0464 14.8521 19.0464C15.7511 19.0468 16.6134 18.69 17.2494 18.0547C17.8854 17.4194 18.2431 16.5574 18.2436 15.6584H18.24ZM17.3367 15.6584C17.3368 16.15 17.1911 16.6306 16.918 17.0394C16.6449 17.4481 16.2567 17.7667 15.8026 17.9548C15.3484 18.1428 14.8486 18.1919 14.3665 18.0958C13.8844 17.9997 13.4416 17.7628 13.0942 17.415C12.7468 17.0672 12.5104 16.6241 12.4149 16.1419C12.3193 15.6597 12.369 15.16 12.5576 14.706C12.7462 14.252 13.0652 13.8642 13.4743 13.5916C13.8834 13.319 14.3641 13.1739 14.8557 13.1746C15.5142 13.1755 16.1455 13.4375 16.6113 13.9031C17.077 14.3687 17.3391 14.9999 17.3403 15.6584H17.3367Z" fill="#393939"/>
</svg>
