<svg width="25" height="25" viewBox="0 0 25 25" fill="none" xmlns="http://www.w3.org/2000/svg">
<path d="M13.2794 3.78006C13.3351 3.7801 13.3898 3.76565 13.4389 3.738C13.488 3.71035 13.5298 3.67036 13.5607 3.62157L13.7352 3.34633C13.8583 3.15119 14.0253 2.99119 14.2213 2.88058C14.4173 2.76997 14.6362 2.71218 14.8585 2.71237H15.3054C15.395 2.71237 15.4809 2.67484 15.5442 2.60804C15.6076 2.54125 15.6432 2.45065 15.6432 2.35618C15.6432 2.26172 15.6076 2.17112 15.5442 2.10433C15.4809 2.03753 15.395 2 15.3054 2H14.8585C14.5249 1.99943 14.1963 2.08598 13.9022 2.25192C13.608 2.41785 13.3574 2.65801 13.1728 2.95096L12.9982 3.22619C12.9643 3.27984 12.9448 3.34221 12.9418 3.40664C12.9388 3.47106 12.9525 3.53513 12.9814 3.59199C13.0103 3.64886 13.0532 3.69639 13.1057 3.72951C13.1582 3.76263 13.2183 3.7801 13.2794 3.78006Z" fill="#0C65C7"/>
<path d="M8.87038 2.70452L9.47242 2.83148C9.70191 2.88034 9.90837 3.01123 10.0569 3.20203C10.2055 3.39284 10.287 3.63186 10.2878 3.87872V4.13436C10.2878 4.18113 10.2965 4.22745 10.3135 4.27066C10.3305 4.31388 10.3554 4.35314 10.3867 4.38621C10.4181 4.41929 10.4553 4.44553 10.4963 4.46342C10.5373 4.48132 10.5812 4.49054 10.6256 4.49054C10.67 4.49054 10.7139 4.48132 10.7549 4.46342C10.7958 4.44553 10.8331 4.41929 10.8645 4.38621C10.8958 4.35314 10.9207 4.31388 10.9377 4.27066C10.9547 4.22745 10.9634 4.18113 10.9634 4.13436V3.87872C10.9614 3.46782 10.8254 3.07014 10.5782 2.75251C10.331 2.43487 9.98758 2.21664 9.60576 2.13446L9.00453 2.00664C8.91751 1.98972 8.82766 2.00948 8.75431 2.06167C8.68096 2.11386 8.62996 2.19433 8.61228 2.28575C8.5946 2.37718 8.61165 2.47227 8.65976 2.55058C8.70788 2.62889 8.78321 2.68416 8.86957 2.70452H8.87038Z" fill="#0C65C7"/>
<path d="M17.828 4.58693C17.9174 4.44596 18.0373 4.32942 18.1778 4.2469C18.3183 4.16438 18.4754 4.11825 18.6361 4.1123L18.5763 4.28698C18.5243 4.42717 18.501 4.57736 18.5079 4.72772C18.5149 4.87807 18.5518 5.02518 18.6165 5.1594C18.6811 5.29362 18.7719 5.41191 18.883 5.5065C18.994 5.6011 19.1228 5.66987 19.2608 5.7083C19.3471 5.7323 19.4359 5.74433 19.5251 5.74409C19.7021 5.7441 19.876 5.69502 20.0293 5.60179C20.1482 5.52868 20.2518 5.4311 20.3342 5.31486C20.4165 5.19863 20.4758 5.06612 20.5085 4.92521C20.5449 4.78316 20.5531 4.63472 20.5325 4.48918C20.5119 4.34365 20.463 4.20418 20.3889 4.07952C20.3147 3.95487 20.217 3.84771 20.1017 3.76478C19.9864 3.68186 19.8561 3.62495 19.719 3.59763L19.5485 3.5644C19.6427 3.34836 19.7869 3.16073 19.9678 3.0187C20.1486 2.87667 20.3604 2.78479 20.5837 2.75148C20.6699 2.73523 20.7468 2.68429 20.7981 2.60941C20.8494 2.53452 20.8711 2.44156 20.8586 2.35013C20.8461 2.2587 20.8005 2.17596 20.7312 2.11936C20.662 2.06277 20.5746 2.03675 20.4875 2.04679C20.1242 2.10117 19.7818 2.25889 19.497 2.50299C19.2123 2.74709 18.996 3.06837 18.8713 3.43232L18.7533 3.40846C18.7288 3.40351 18.7039 3.40151 18.679 3.40249H18.6151C18.347 3.41213 18.0849 3.48895 17.8505 3.62661C17.6161 3.76426 17.4162 3.95879 17.2672 4.1941C17.2176 4.2732 17.1998 4.36984 17.2178 4.46277C17.2357 4.55569 17.288 4.63729 17.363 4.6896C17.438 4.74192 17.5296 4.76067 17.6178 4.74174C17.7059 4.7228 17.7833 4.66773 17.8329 4.58863L17.828 4.58693ZM19.2123 4.53665L19.3133 4.24012L19.597 4.29636C19.6427 4.30526 19.6861 4.32411 19.7245 4.35169C19.7629 4.37927 19.7954 4.41498 19.82 4.45655C19.8467 4.50286 19.8636 4.55472 19.8694 4.60856C19.8753 4.6624 19.87 4.71694 19.854 4.76842C19.8418 4.81577 19.8205 4.85998 19.7915 4.89832C19.7624 4.93665 19.7263 4.9683 19.6852 4.99131C19.6441 5.01431 19.5989 5.02818 19.5526 5.03206C19.5062 5.03595 19.4595 5.02975 19.4155 5.01387C19.3715 4.99799 19.331 4.97276 19.2966 4.93973C19.2622 4.9067 19.2346 4.86658 19.2155 4.82186C19.1964 4.77713 19.1861 4.72874 19.1855 4.67969C19.1848 4.63063 19.1937 4.58195 19.2115 4.53665H19.2123Z" fill="#0C65C7"/>
<path d="M2.30535 2.74726C2.5292 2.78123 2.74134 2.87404 2.92224 3.01714C3.10314 3.16024 3.24699 3.34904 3.34054 3.56614L3.16761 3.60193C3.03078 3.62908 2.9007 3.6856 2.78546 3.76798C2.67022 3.85036 2.57226 3.95684 2.49768 4.08081C2.42193 4.21011 2.37272 4.35471 2.35323 4.5053C2.33374 4.65589 2.34441 4.80911 2.38455 4.95508C2.44211 5.18183 2.56894 5.38226 2.7454 5.52535C2.92187 5.66845 3.13813 5.74624 3.36075 5.74669C3.45081 5.74649 3.54046 5.73389 3.62742 5.70919C3.76434 5.67065 3.89206 5.60224 4.00233 5.50837C4.11259 5.4145 4.20294 5.29728 4.26754 5.16427C4.33213 5.03127 4.36952 4.88545 4.3773 4.73624C4.38508 4.58704 4.36308 4.43777 4.3127 4.2981L4.25048 4.11149C4.4112 4.11744 4.56829 4.16357 4.70879 4.24609C4.84929 4.32861 4.96918 4.44515 5.05859 4.58611C5.08315 4.62528 5.1148 4.65896 5.15171 4.68523C5.18862 4.7115 5.23008 4.72985 5.27371 4.73922C5.31735 4.7486 5.36231 4.74882 5.40603 4.73988C5.44974 4.73093 5.49136 4.71299 5.5285 4.68709C5.56565 4.66118 5.59759 4.62782 5.6225 4.5889C5.64742 4.54998 5.66482 4.50626 5.67371 4.46025C5.6826 4.41424 5.68281 4.36683 5.67433 4.32073C5.66584 4.27464 5.64883 4.23075 5.62427 4.19159C5.47579 3.95528 5.27594 3.75977 5.04135 3.62134C4.80675 3.48291 4.5442 3.40556 4.27553 3.39572H4.20684C4.18192 3.39452 4.15695 3.39653 4.13249 3.40168L4.01451 3.42554C3.88986 3.06159 3.67354 2.74032 3.38879 2.49621C3.10405 2.25211 2.76162 2.0944 2.39829 2.04001C2.35355 2.03157 2.30765 2.0327 2.26334 2.04336C2.21902 2.05401 2.17719 2.07396 2.14035 2.10202C2.1035 2.13008 2.07239 2.16568 2.04887 2.20669C2.02534 2.2477 2.00989 2.29329 2.00344 2.34073C1.99698 2.38817 1.99964 2.43649 2.01127 2.48282C2.02291 2.52916 2.04327 2.57254 2.07114 2.6104C2.09901 2.64826 2.13383 2.67981 2.17351 2.70318C2.21319 2.72655 2.25693 2.74125 2.30212 2.74641L2.30535 2.74726ZM3.67914 4.54436C3.70411 4.61324 3.70828 4.68857 3.6911 4.76005C3.67392 4.83153 3.63622 4.89566 3.58316 4.94369C3.5301 4.99172 3.46426 5.02129 3.39465 5.02836C3.32504 5.03543 3.25506 5.01966 3.19428 4.9832C3.1528 4.95599 3.11705 4.92009 3.08925 4.87773C3.06145 4.83538 3.04219 4.78746 3.03265 4.73694C3.02061 4.68959 3.01796 4.64013 3.02488 4.59165C3.0318 4.54317 3.04814 4.49672 3.07287 4.45521C3.0976 4.41369 3.13019 4.37801 3.1686 4.35039C3.20701 4.32277 3.25042 4.30381 3.2961 4.29469L3.57651 4.23931L3.67914 4.54436Z" fill="#0C65C7"/>
<path d="M19.1751 10.8467L12.4492 13.1039L14.3273 15.368L21.0532 13.1107L19.1751 10.8467Z" fill="#0C65C7"/>
<path d="M5.73242 10.4681L11.95 12.5865L18.1676 10.4681L12.2822 8.46313V10.1094C12.2844 10.1569 12.2774 10.2044 12.2617 10.249C12.246 10.2936 12.2219 10.3343 12.1908 10.3688C12.1597 10.4032 12.1223 10.4306 12.0808 10.4494C12.0394 10.4681 11.9947 10.4778 11.9496 10.4778C11.9045 10.4778 11.8599 10.4681 11.8184 10.4494C11.777 10.4306 11.7396 10.4032 11.7085 10.3688C11.6774 10.3343 11.6532 10.2936 11.6375 10.249C11.6218 10.2044 11.6149 10.1569 11.6171 10.1094V8.46313L5.73242 10.4681ZM11.95 11.1805C12.0171 11.1793 12.0829 11.1992 12.1392 11.2376C12.1955 11.276 12.2397 11.3312 12.2661 11.3962C12.2925 11.4612 12.3 11.533 12.2877 11.6024C12.2753 11.6719 12.2436 11.736 12.1965 11.7864C12.1495 11.8368 12.0894 11.8713 12.0237 11.8855C11.958 11.8998 11.8898 11.8931 11.8278 11.8663C11.7657 11.8395 11.7126 11.7939 11.6752 11.7352C11.6379 11.6765 11.6179 11.6074 11.6179 11.5367C11.6172 11.443 11.6519 11.353 11.7141 11.2862C11.7764 11.2194 11.8612 11.1814 11.95 11.1805Z" fill="#0C65C7"/>
<path d="M15.258 18.1388L18.3151 18.8989C18.3728 18.914 18.4257 18.945 18.4683 18.9887C18.5109 19.0325 18.5417 19.0873 18.5575 19.1477C18.5743 19.2083 18.5757 19.2725 18.5615 19.3338C18.5473 19.3952 18.5181 19.4515 18.4767 19.4971L18.0056 20.0007L18.0597 20.0586L18.9487 19.7178V14.4824L14.3853 16.0324C14.3529 16.0436 14.3191 16.0494 14.2851 16.0495C14.2375 16.0494 14.1905 16.0386 14.1473 16.0177C14.1041 15.9969 14.0656 15.9664 14.0345 15.9285L12.2866 13.7922V16.7618C12.2866 16.8549 12.2515 16.9442 12.1891 17.0101C12.1266 17.0759 12.042 17.1129 11.9537 17.1129C11.8654 17.1129 11.7807 17.0759 11.7182 17.0101C11.6558 16.9442 11.6207 16.8549 11.6207 16.7618V13.7922L9.87277 15.9285C9.84162 15.9663 9.80312 15.9965 9.7599 16.0173C9.71668 16.038 9.66974 16.0487 9.62225 16.0486C9.58821 16.0485 9.55439 16.0428 9.52205 16.0316L4.95703 14.4824V19.7161L11.6183 22.3048V19.6096C11.6183 19.5165 11.6534 19.4272 11.7158 19.3613C11.7782 19.2955 11.8629 19.2585 11.9512 19.2585C12.0395 19.2585 12.1242 19.2955 12.1867 19.3613C12.2491 19.4272 12.2842 19.5165 12.2842 19.6096V22.3057L15.3986 21.0948L14.8572 18.5649C14.8444 18.5061 14.8458 18.4448 14.8613 18.3867C14.8769 18.3287 14.906 18.2757 14.9461 18.2326C14.9858 18.1898 15.0353 18.1585 15.0898 18.1418C15.1443 18.1251 15.2019 18.1235 15.2572 18.1371L15.258 18.1388ZM11.952 18.541C11.885 18.5421 11.8193 18.522 11.7631 18.4835C11.7069 18.445 11.6628 18.3897 11.6365 18.3247C11.6102 18.2598 11.6028 18.188 11.6153 18.1186C11.6278 18.0491 11.6596 17.9852 11.7066 17.9349C11.7537 17.8845 11.8138 17.8501 11.8795 17.8359C11.9451 17.8218 12.0133 17.8285 12.0753 17.8553C12.1373 17.8821 12.1904 17.9278 12.2277 17.9865C12.265 18.0451 12.285 18.1142 12.285 18.1849C12.2853 18.2313 12.2769 18.2773 12.2604 18.3204C12.2438 18.3634 12.2194 18.4026 12.1885 18.4357C12.1576 18.4687 12.1208 18.4951 12.0802 18.5131C12.0396 18.5312 11.9961 18.5407 11.952 18.541Z" fill="#0C65C7"/>
<path d="M21.0532 7.82755L14.3273 5.57031L12.4492 7.83436L19.1751 10.0916L21.0532 7.82755Z" fill="#0C65C7"/>
<path d="M11.4544 13.1039L4.72766 10.8467L2.84961 13.1107L9.57552 15.368L11.4544 13.1039Z" fill="#0C65C7"/>
<path d="M16.3605 20.7566C16.4239 20.6898 16.5098 20.6523 16.5993 20.6523C16.6889 20.6523 16.7748 20.6898 16.8381 20.7566L18.3113 22.31L18.7889 21.8064L17.3157 20.2564C17.2524 20.1896 17.2168 20.099 17.2168 20.0046C17.2168 19.9102 17.2524 19.8196 17.3157 19.7528L17.6018 19.4503L15.6211 18.9646L16.0761 21.0591L16.3605 20.7566Z" fill="#0C65C7"/>
<path d="M2.84961 7.82755L4.72766 10.0916L11.4536 7.83436L9.57552 5.57031L2.84961 7.82755Z" fill="#0C65C7"/>
<path d="M12.9554 4.59719C13.1822 4.59719 13.366 4.40338 13.366 4.16432C13.366 3.92525 13.1822 3.73145 12.9554 3.73145C12.7287 3.73145 12.5449 3.92525 12.5449 4.16432C12.5449 4.40338 12.7287 4.59719 12.9554 4.59719Z" fill="#0C65C7"/>
<path d="M16.2093 2.86574C16.4361 2.86574 16.6199 2.67194 16.6199 2.43287C16.6199 2.1938 16.4361 2 16.2093 2C15.9826 2 15.7988 2.1938 15.7988 2.43287C15.7988 2.67194 15.9826 2.86574 16.2093 2.86574Z" fill="#0C65C7"/>
<path d="M21.9008 2.86574C22.1275 2.86574 22.3113 2.67194 22.3113 2.43287C22.3113 2.1938 22.1275 2 21.9008 2C21.674 2 21.4902 2.1938 21.4902 2.43287C21.4902 2.67194 21.674 2.86574 21.9008 2.86574Z" fill="#0C65C7"/>
<path d="M5.97026 5.82263C6.17066 5.82263 6.33311 5.48042 6.33311 5.05829C6.33311 4.63615 6.17066 4.29395 5.97026 4.29395C5.76987 4.29395 5.60742 4.63615 5.60742 5.05829C5.60742 5.48042 5.76987 5.82263 5.97026 5.82263Z" fill="#0C65C7"/>
</svg>
