<svg width="20" height="20" viewBox="0 0 20 20" fill="none" xmlns="http://www.w3.org/2000/svg">
<path fill-rule="evenodd" clip-rule="evenodd" d="M0 0H1.25V18.75H20V20H0V0ZM18.5212 3.89125C18.5848 3.94326 18.6375 4.00729 18.6763 4.07968C18.7151 4.15206 18.7393 4.23139 18.7474 4.31312C18.7555 4.39484 18.7475 4.47737 18.7237 4.55598C18.6999 4.63459 18.6608 4.70774 18.6087 4.77125L12.9838 11.6463C12.9285 11.7137 12.8597 11.7689 12.7818 11.8082C12.7039 11.8475 12.6186 11.87 12.5315 11.8744C12.4444 11.8787 12.3573 11.8648 12.2759 11.8335C12.1945 11.8022 12.1205 11.7541 12.0588 11.6925L8.825 8.45875L4.255 14.7425C4.15503 14.8696 4.00967 14.953 3.84948 14.9752C3.68929 14.9974 3.52673 14.9567 3.39596 14.8615C3.2652 14.7663 3.17641 14.6242 3.14826 14.4649C3.12011 14.3057 3.15479 14.1417 3.245 14.0075L8.245 7.1325C8.29807 7.05939 8.36636 6.99866 8.44516 6.95448C8.52396 6.91031 8.61141 6.88374 8.70146 6.87661C8.79152 6.86948 8.88205 6.88196 8.96682 6.91319C9.05159 6.94442 9.12859 6.99365 9.1925 7.0575L12.4538 10.32L17.6413 3.97875C17.6933 3.91519 17.7573 3.8625 17.8297 3.8237C17.9021 3.78489 17.9814 3.76074 18.0631 3.75261C18.1448 3.74449 18.2274 3.75255 18.306 3.77634C18.3846 3.80012 18.4577 3.83917 18.5212 3.89125Z" fill="#9E9E9E"/>
</svg>
