<svg width="29" height="29" viewBox="0 0 29 29" fill="none" xmlns="http://www.w3.org/2000/svg">
<circle cx="14.5" cy="14.5" r="14.5" fill="#D0D0D0"/>
<path d="M16.8782 13.9989L22.606 8.28357C22.8568 8.03271 22.9977 7.69246 22.9977 7.33769C22.9977 6.98291 22.8568 6.64266 22.606 6.3918C22.3552 6.14093 22.015 6 21.6602 6C21.3055 6 20.9653 6.14093 20.7145 6.3918L15 12.1204L9.28552 6.3918C9.03469 6.14093 8.6945 6 8.33977 6C7.98504 6 7.64485 6.14093 7.39402 6.3918C7.14319 6.64266 7.00227 6.98291 7.00227 7.33769C7.00227 7.69246 7.14319 8.03271 7.39402 8.28357L13.1218 13.9989L7.39402 19.7142C7.26917 19.838 7.17007 19.9853 7.10244 20.1477C7.03482 20.31 7 20.4842 7 20.66C7 20.8359 7.03482 21.01 7.10244 21.1724C7.17007 21.3347 7.26917 21.4821 7.39402 21.6059C7.51785 21.7308 7.66517 21.8299 7.8275 21.8975C7.98982 21.9652 8.16392 22 8.33977 22C8.51562 22 8.68972 21.9652 8.85204 21.8975C9.01437 21.8299 9.16169 21.7308 9.28552 21.6059L15 15.8773L20.7145 21.6059C20.8383 21.7308 20.9856 21.8299 21.148 21.8975C21.3103 21.9652 21.4844 22 21.6602 22C21.8361 22 22.0102 21.9652 22.1725 21.8975C22.3348 21.8299 22.4822 21.7308 22.606 21.6059C22.7308 21.4821 22.8299 21.3347 22.8976 21.1724C22.9652 21.01 23 20.8359 23 20.66C23 20.4842 22.9652 20.31 22.8976 20.1477C22.8299 19.9853 22.7308 19.838 22.606 19.7142L16.8782 13.9989Z" fill="white"/>
</svg>
