<svg width="25" height="25" viewBox="0 0 25 25" fill="none" xmlns="http://www.w3.org/2000/svg">
<path d="M18.75 16.4063C18.3291 16.4062 17.9126 16.4913 17.5255 16.6567C17.1385 16.822 16.7889 17.0641 16.498 17.3683L9.27148 13.3023C9.41146 12.7767 9.41146 12.2235 9.27148 11.6978L16.498 7.63192C17.0243 8.1775 17.7314 8.5125 18.4869 8.57415C19.2424 8.63581 19.9944 8.41989 20.6021 7.96685C21.2099 7.51382 21.6315 6.85474 21.7882 6.11311C21.9449 5.37147 21.8258 4.59815 21.4532 3.93803C21.0806 3.27791 20.4801 2.77628 19.7643 2.52712C19.0484 2.27795 18.2662 2.29835 17.5643 2.58448C16.8624 2.87062 16.2888 3.40287 15.9512 4.08151C15.6135 4.76015 15.5349 5.53862 15.73 6.27108L8.50341 10.337C8.07175 9.88692 7.51529 9.57628 6.90563 9.44506C6.29597 9.31383 5.66099 9.36801 5.08237 9.60064C4.50376 9.83326 4.00797 10.2337 3.6588 10.7504C3.30963 11.2671 3.12305 11.8765 3.12305 12.5001C3.12305 13.1237 3.30963 13.7331 3.6588 14.2498C4.00797 14.7665 4.50376 15.1669 5.08237 15.3995C5.66099 15.6322 6.29597 15.6863 6.90563 15.5551C7.51529 15.4239 8.07175 15.1133 8.50341 14.6632L15.73 18.7291C15.5624 19.3599 15.5966 20.0273 15.8277 20.6377C16.0587 21.2481 16.4751 21.7708 17.0184 22.1325C17.5617 22.4942 18.2045 22.6768 18.8568 22.6545C19.5091 22.6323 20.1381 22.4063 20.6554 22.0084C21.1728 21.6105 21.5525 21.0606 21.7415 20.4359C21.9304 19.8112 21.919 19.143 21.7088 18.5251C21.4986 17.9071 21.1003 17.3706 20.5696 16.9906C20.039 16.6106 19.4027 16.4063 18.75 16.4063Z" fill="#7654C9"/>
</svg>
