<svg width="17" height="17" viewBox="0 0 17 17" fill="none" xmlns="http://www.w3.org/2000/svg">
<circle cx="8.5" cy="8.5" r="8.5" fill="white"/>
<path fill-rule="evenodd" clip-rule="evenodd" d="M11.9995 4.7986C12.1744 4.62921 12.4105 4.53387 12.6567 4.53321C12.9029 4.53254 13.1396 4.6266 13.3154 4.79505C13.4912 4.96351 13.5922 5.19281 13.5963 5.4334C13.6005 5.67398 13.5077 5.90651 13.3378 6.08072L8.34948 12.1738C8.26374 12.2641 8.16027 12.3365 8.04524 12.3868C7.93021 12.437 7.806 12.4641 7.68001 12.4664C7.55403 12.4687 7.42887 12.4461 7.31202 12.4C7.19516 12.354 7.08902 12.2853 6.99992 12.1983L3.69477 8.96732C3.60269 8.88348 3.52884 8.78238 3.47762 8.67004C3.42639 8.5577 3.39885 8.43643 3.39663 8.31347C3.39441 8.1905 3.41756 8.06836 3.46469 7.95433C3.51183 7.8403 3.58199 7.73671 3.67098 7.64974C3.75997 7.56278 3.86598 7.49423 3.98268 7.44817C4.09937 7.40211 4.22437 7.37949 4.35021 7.38166C4.47604 7.38383 4.60014 7.41074 4.7151 7.46079C4.83007 7.51085 4.93353 7.58302 5.01933 7.67299L7.63596 10.2287L11.9758 4.82547C11.9835 4.81601 11.9919 4.80703 12.0008 4.7986H11.9995Z" fill="#0C65C7"/>
</svg>
