<svg width="25" height="25" viewBox="0 0 25 25" fill="none" xmlns="http://www.w3.org/2000/svg">
<path d="M17.7559 5.23657L2.89836 20.1307L1.99805 22.3102L4.17757 21.4099L19.0717 6.55237L17.7559 5.23657Z" stroke="#7654C9" stroke-width="2.07683" stroke-linecap="round" stroke-linejoin="round"/>
<path d="M20.7316 2.2643L20.0879 2.90745L21.4037 4.22325L22.0474 3.57954C22.2163 3.41052 22.3112 3.18134 22.3112 2.94239C22.3112 2.70344 22.2163 2.47427 22.0474 2.30524L22.0064 2.2643C21.9227 2.18058 21.8234 2.11418 21.714 2.06887C21.6046 2.02356 21.4874 2.00024 21.369 2.00024C21.2506 2.00024 21.1334 2.02356 21.024 2.06887C20.9147 2.11418 20.8153 2.18058 20.7316 2.2643Z" stroke="#7654C9" stroke-width="2.07683" stroke-linecap="round" stroke-linejoin="round"/>
</svg>
