<svg width="12" height="12" viewBox="0 0 12 12" fill="none" xmlns="http://www.w3.org/2000/svg">
<path d="M6 0C2.6875 0 0 2.6875 0 6C0 9.3125 2.6875 12 6 12C9.3125 12 12 9.3125 12 6C12 2.6875 9.3125 0 6 0ZM5.8125 9.5C5.68889 9.5 5.56805 9.46334 5.46527 9.39467C5.36249 9.32599 5.28238 9.22838 5.23508 9.11418C5.18777 8.99997 5.17539 8.87431 5.19951 8.75307C5.22362 8.63183 5.28315 8.52047 5.37056 8.43306C5.45797 8.34565 5.56933 8.28613 5.69057 8.26201C5.81181 8.23789 5.93747 8.25027 6.05168 8.29757C6.16588 8.34488 6.26349 8.42499 6.33217 8.52777C6.40084 8.63055 6.4375 8.75139 6.4375 8.875C6.4375 9.04076 6.37165 9.19973 6.25444 9.31694C6.13723 9.43415 5.97826 9.5 5.8125 9.5ZM6.8575 6.3125C6.35094 6.6525 6.28125 6.96406 6.28125 7.25C6.28125 7.36603 6.23516 7.47731 6.15311 7.55936C6.07106 7.64141 5.95978 7.6875 5.84375 7.6875C5.72772 7.6875 5.61644 7.64141 5.53439 7.55936C5.45234 7.47731 5.40625 7.36603 5.40625 7.25C5.40625 6.56531 5.72125 6.02094 6.36938 5.58563C6.97188 5.18125 7.3125 4.925 7.3125 4.36156C7.3125 3.97844 7.09375 3.6875 6.64094 3.47219C6.53438 3.42156 6.29719 3.37219 6.00531 3.37563C5.63906 3.38031 5.35469 3.46781 5.13562 3.64406C4.7225 3.97656 4.6875 4.33844 4.6875 4.34375C4.68473 4.4012 4.67067 4.45755 4.64612 4.50957C4.62158 4.56159 4.58703 4.60826 4.54444 4.64693C4.50186 4.6856 4.45208 4.7155 4.39794 4.73493C4.3438 4.75435 4.28636 4.76293 4.22891 4.76016C4.17145 4.75739 4.11511 4.74333 4.06309 4.71878C4.01107 4.69424 3.96439 4.65968 3.92573 4.6171C3.88706 4.57452 3.85716 4.52473 3.83773 4.47059C3.8183 4.41645 3.80973 4.35902 3.8125 4.30156C3.81594 4.22563 3.86875 3.54156 4.58656 2.96406C4.95875 2.66469 5.43219 2.50906 5.99281 2.50219C6.38969 2.4975 6.7625 2.56469 7.01531 2.68406C7.77187 3.04187 8.1875 3.63844 8.1875 4.36156C8.1875 5.41875 7.48094 5.89344 6.8575 6.3125Z" fill="#393939"/>
</svg>
