<svg width="19" height="15" viewBox="0 0 19 15" fill="none" xmlns="http://www.w3.org/2000/svg">
<path fill-rule="evenodd" clip-rule="evenodd" d="M0.324067 2.62732C0.324067 1.71283 1.06555 0.972229 1.97916 0.972229H17.206C18.1196 0.972229 18.8611 1.71371 18.8611 2.62732V5.29842C18.8612 5.4147 18.8306 5.52896 18.7725 5.62968C18.7144 5.7304 18.6308 5.81404 18.5301 5.87219C18.2277 6.04627 17.9766 6.29695 17.802 6.59898C17.6274 6.90101 17.5355 7.24373 17.5355 7.5926C17.5355 7.94147 17.6274 8.28418 17.802 8.58622C17.9766 8.88825 18.2277 9.13893 18.5301 9.31301C18.6308 9.37115 18.7144 9.4548 18.7725 9.55552C18.8306 9.65624 18.8612 9.77049 18.8611 9.88678V12.5579C18.8611 13.4715 18.1196 14.213 17.206 14.213H1.97916C1.5402 14.213 1.11922 14.0386 0.808832 13.7282C0.498442 13.4178 0.324067 12.9968 0.324067 12.5579V9.88678C0.323903 9.77058 0.354324 9.65639 0.412274 9.55567C0.470225 9.45496 0.553662 9.37127 0.654203 9.31301C0.956538 9.13893 1.20766 8.88825 1.38227 8.58622C1.55688 8.28418 1.64882 7.94147 1.64882 7.5926C1.64882 7.24373 1.55688 6.90101 1.38227 6.59898C1.20766 6.29695 0.956538 6.04627 0.654203 5.87219C0.553662 5.81393 0.470225 5.73024 0.412274 5.62953C0.354324 5.52881 0.323903 5.41462 0.324067 5.29842V2.62732ZM13.5648 1.63427C13.7404 1.63427 13.9088 1.70402 14.0329 1.82817C14.1571 1.95233 14.2268 2.12072 14.2268 2.2963V2.95834C14.2268 3.13392 14.1571 3.30231 14.0329 3.42647C13.9088 3.55063 13.7404 3.62038 13.5648 3.62038C13.3892 3.62038 13.2208 3.55063 13.0967 3.42647C12.9725 3.30231 12.9028 3.13392 12.9028 2.95834V2.2963C12.9028 2.12072 12.9725 1.95233 13.0967 1.82817C13.2208 1.70402 13.3892 1.63427 13.5648 1.63427ZM14.2268 5.60649C14.2268 5.43091 14.1571 5.26251 14.0329 5.13836C13.9088 5.0142 13.7404 4.94445 13.5648 4.94445C13.3892 4.94445 13.2208 5.0142 13.0967 5.13836C12.9725 5.26251 12.9028 5.43091 12.9028 5.60649V6.26853C12.9028 6.44411 12.9725 6.6125 13.0967 6.73666C13.2208 6.86081 13.3892 6.93056 13.5648 6.93056C13.7404 6.93056 13.9088 6.86081 14.0329 6.73666C14.1571 6.6125 14.2268 6.44411 14.2268 6.26853V5.60649ZM13.5648 8.25464C13.7404 8.25464 13.9088 8.32439 14.0329 8.44854C14.1571 8.5727 14.2268 8.74109 14.2268 8.91667V9.57871C14.2268 9.75429 14.1571 9.92268 14.0329 10.0468C13.9088 10.171 13.7404 10.2407 13.5648 10.2407C13.3892 10.2407 13.2208 10.171 13.0967 10.0468C12.9725 9.92268 12.9028 9.75429 12.9028 9.57871V8.91667C12.9028 8.74109 12.9725 8.5727 13.0967 8.44854C13.2208 8.32439 13.3892 8.25464 13.5648 8.25464ZM14.2268 12.2269C14.2268 12.0513 14.1571 11.8829 14.0329 11.7587C13.9088 11.6346 13.7404 11.5648 13.5648 11.5648C13.3892 11.5648 13.2208 11.6346 13.0967 11.7587C12.9725 11.8829 12.9028 12.0513 12.9028 12.2269V12.8889C12.9028 13.0645 12.9725 13.2329 13.0967 13.357C13.2208 13.4812 13.3892 13.5509 13.5648 13.5509C13.7404 13.5509 13.9088 13.4812 14.0329 13.357C14.1571 13.2329 14.2268 13.0645 14.2268 12.8889V12.2269ZM4.29629 7.5926C4.29629 7.41702 4.36604 7.24862 4.4902 7.12447C4.61435 7.00031 4.78274 6.93056 4.95833 6.93056H9.59259C9.76817 6.93056 9.93656 7.00031 10.0607 7.12447C10.1849 7.24862 10.2546 7.41702 10.2546 7.5926C10.2546 7.76818 10.1849 7.93657 10.0607 8.06073C9.93656 8.18489 9.76817 8.25464 9.59259 8.25464H4.95833C4.78274 8.25464 4.61435 8.18489 4.4902 8.06073C4.36604 7.93657 4.29629 7.76818 4.29629 7.5926ZM4.95833 9.57871C4.78274 9.57871 4.61435 9.64846 4.4902 9.77262C4.36604 9.89677 4.29629 10.0652 4.29629 10.2407C4.29629 10.4163 4.36604 10.5847 4.4902 10.7089C4.61435 10.833 4.78274 10.9028 4.95833 10.9028H7.60647C7.78206 10.9028 7.95045 10.833 8.0746 10.7089C8.19876 10.5847 8.26851 10.4163 8.26851 10.2407C8.26851 10.0652 8.19876 9.89677 8.0746 9.77262C7.95045 9.64846 7.78206 9.57871 7.60647 9.57871H4.95833Z" fill="white"/>
</svg>
