<svg width="17" height="18" viewBox="0 0 17 18" fill="none" xmlns="http://www.w3.org/2000/svg">
<path d="M3.71875 4.21875L4.38281 14.8438C4.41436 15.4577 4.86094 15.9062 5.44531 15.9062H11.5547C12.1414 15.9062 12.5797 15.4577 12.6172 14.8438L13.2812 4.21875" stroke="#F60000" stroke-width="1.0625" stroke-linecap="round" stroke-linejoin="round"/>
<path d="M2.65625 4.21875H14.3438" stroke="#F60000" stroke-width="1.0625" stroke-miterlimit="10" stroke-linecap="round"/>
<path d="M6.375 4.21875V2.89063C6.3747 2.7859 6.3951 2.68213 6.43504 2.58531C6.47498 2.4885 6.53366 2.40053 6.60772 2.32647C6.68178 2.25241 6.76974 2.19373 6.86656 2.15379C6.96338 2.11385 7.06715 2.09345 7.17188 2.09375H9.82813C9.93286 2.09345 10.0366 2.11385 10.1334 2.15379C10.2303 2.19373 10.3182 2.25241 10.3923 2.32647C10.4663 2.40053 10.525 2.4885 10.565 2.58531C10.6049 2.68213 10.6253 2.7859 10.625 2.89063V4.21875" stroke="#F60000" stroke-width="1.0625" stroke-linecap="round" stroke-linejoin="round"/>
<path d="M8.5 6.34375V13.7812" stroke="#F60000" stroke-width="1.0625" stroke-linecap="round" stroke-linejoin="round"/>
<path d="M6.10938 6.34375L6.375 13.7812" stroke="#F60000" stroke-width="1.0625" stroke-linecap="round" stroke-linejoin="round"/>
<path d="M10.8906 6.34375L10.625 13.7812" stroke="#F60000" stroke-width="1.0625" stroke-linecap="round" stroke-linejoin="round"/>
</svg>
