<svg width="18" height="16" viewBox="0 0 18 16" fill="none" xmlns="http://www.w3.org/2000/svg">
<path d="M12.5813 2.6L15.4 5.41875C15.5187 5.5375 15.5187 5.73125 15.4 5.85L8.575 12.675L5.675 12.9969C5.2875 13.0406 4.95938 12.7125 5.00313 12.325L5.325 9.425L12.15 2.6C12.2687 2.48125 12.4625 2.48125 12.5813 2.6ZM17.6437 1.88438L16.1187 0.359378C15.6437 -0.115622 14.8719 -0.115622 14.3938 0.359378L13.2875 1.46563C13.1688 1.58438 13.1688 1.77813 13.2875 1.89688L16.1063 4.71563C16.225 4.83438 16.4188 4.83438 16.5375 4.71563L17.6437 3.60938C18.1187 3.13125 18.1187 2.35938 17.6437 1.88438ZM12 10.8188V14H2V4H9.18125C9.28125 4 9.375 3.95938 9.44687 3.89063L10.6969 2.64063C10.9344 2.40313 10.7656 2 10.4312 2H1.5C0.671875 2 0 2.67188 0 3.5V14.5C0 15.3281 0.671875 16 1.5 16H12.5C13.3281 16 14 15.3281 14 14.5V9.56875C14 9.23438 13.5969 9.06875 13.3594 9.30313L12.1094 10.5531C12.0406 10.625 12 10.7188 12 10.8188Z" fill="white"/>
</svg>
