<svg width="20" height="20" viewBox="0 0 20 20" fill="none" xmlns="http://www.w3.org/2000/svg">
<path d="M10.3818 1.6665C5.57551 1.6665 1.66602 5.34649 1.66602 9.87134C1.68287 11.8223 2.39815 13.6925 3.66539 15.0991C3.7913 15.653 3.7817 16.2321 3.63752 16.7808C3.49334 17.3296 3.21942 17.8296 2.84202 18.233C2.77043 18.3095 2.7217 18.4069 2.70197 18.5129C2.68224 18.6189 2.69239 18.7288 2.73115 18.8288C2.76991 18.9286 2.83552 19.014 2.91973 19.0741C3.00393 19.1343 3.10295 19.1663 3.20427 19.1665C4.66484 19.1648 6.06809 18.5599 7.11989 17.4787C8.16716 17.8751 9.27068 18.076 10.3818 18.0724C15.1883 18.0762 19.166 14.3962 19.166 9.87134C19.166 5.34649 15.1883 1.6665 10.3818 1.6665ZM6.34902 11.5125C6.04478 11.5125 5.74737 11.4163 5.49441 11.2359C5.24145 11.0556 5.04428 10.7993 4.92786 10.4993C4.81143 10.1995 4.78097 9.8695 4.84032 9.55117C4.89967 9.23284 5.04618 8.94034 5.26131 8.71084C5.47644 8.48134 5.75052 8.32503 6.04892 8.2617C6.34731 8.19838 6.6566 8.23088 6.93767 8.35509C7.21876 8.47934 7.459 8.68967 7.62802 8.95959C7.79705 9.22942 7.88726 9.54675 7.88726 9.87134C7.8868 10.3064 7.72459 10.7236 7.43621 11.0313C7.14783 11.3389 6.75684 11.512 6.34902 11.5125ZM10.4501 11.5125C10.146 11.5119 9.84885 11.4152 9.59626 11.2345C9.3436 11.0538 9.14685 10.7973 9.03085 10.4974C8.91485 10.1975 8.88477 9.86759 8.94443 9.54942C9.00402 9.23125 9.15076 8.93909 9.36601 8.70984C9.58118 8.48059 9.85535 8.3246 10.1536 8.2615C10.4519 8.1984 10.7611 8.23107 11.042 8.35534C11.3229 8.47967 11.563 8.69 11.7319 8.95984C11.9008 9.22967 11.991 9.54684 11.991 9.87134C11.9905 10.3069 11.828 10.7245 11.539 11.0323C11.2501 11.34 10.8584 11.5128 10.4501 11.5125ZM14.5513 11.5125C14.247 11.5125 13.9496 11.4163 13.6967 11.2359C13.4437 11.0556 13.2465 10.7993 13.1301 10.4993C13.0137 10.1995 12.9832 9.8695 13.0426 9.55117C13.1019 9.23284 13.2484 8.94034 13.4636 8.71084C13.6787 8.48134 13.9528 8.32503 14.2512 8.2617C14.5496 8.19838 14.8588 8.23088 15.1399 8.35509C15.421 8.47934 15.6613 8.68967 15.8303 8.95959C15.9993 9.22942 16.0895 9.54675 16.0895 9.87134C16.089 10.3063 15.9269 10.7233 15.6388 11.0309C15.3506 11.3386 14.9598 11.5118 14.5521 11.5125H14.5513Z" fill="#7654C9"/>
</svg>
