<svg width="15" height="15" viewBox="0 0 15 15" fill="none" xmlns="http://www.w3.org/2000/svg">
<path d="M12.2975 8.3863L12.8041 7.57268H9.96856L10.3941 6.75907H13.0406L13.5471 5.94545H9.33439L9.75993 5.13184H13.7242L14.2902 4.31822H12.2648C12.3007 4.03051 12.2213 3.75458 12.0441 3.55114C11.8669 3.34769 11.6064 3.2334 11.32 3.2334H5.49283C5.09206 3.2334 4.92729 4.23705 4.56822 5.40304H2.94794C2.31833 5.89699 1.90514 6.36962 1.05703 7.57268L0.71875 10.2847H1.79894C1.7451 10.7163 1.86419 11.1302 2.12998 11.4354C2.39578 11.7405 2.78652 11.912 3.21624 11.912C3.64597 11.912 4.07948 11.7405 4.4214 11.4354C4.76333 11.1302 4.98566 10.7163 5.03949 10.2847H7.19986C7.14603 10.7163 7.26511 11.1302 7.53091 11.4354C7.79671 11.7405 8.18745 11.912 8.61717 11.912C9.0469 11.912 9.4804 11.7405 9.82233 11.4354C10.1643 11.1302 10.3866 10.7163 10.4404 10.2847H11.5206L11.7574 8.3863H12.2975ZM3.31773 11.0984C3.10287 11.0984 2.9075 11.0126 2.7746 10.86C2.6417 10.7075 2.58216 10.5005 2.60907 10.2847C2.63599 10.069 2.74716 9.862 2.91812 9.70942C3.08908 9.55684 3.30584 9.47112 3.5207 9.47112C3.73556 9.47112 3.93093 9.55684 4.06383 9.70942C4.19673 9.862 4.25627 10.069 4.22935 10.2847C4.20244 10.5005 4.09127 10.7075 3.92031 10.86C3.74934 11.0126 3.53259 11.0984 3.31773 11.0984ZM3.05137 6.14867C3.26727 6.14867 4.30811 6.14232 4.50901 6.14867C4.7099 6.15503 4.50901 7.60631 4.21748 7.60631C3.92595 7.60631 2.17679 7.60631 2.17679 7.60631C1.59374 7.60631 2.83548 6.14867 3.05137 6.14867ZM8.71866 11.0984C8.50379 11.0984 8.30842 11.0126 8.17553 10.86C8.04263 10.7075 7.98309 10.5005 8.01 10.2847C8.03692 10.069 8.14808 9.862 8.31905 9.70942C8.49001 9.55684 8.70676 9.47112 8.92163 9.47112C9.13649 9.47112 9.33186 9.55684 9.46476 9.70942C9.59766 9.862 9.6572 10.069 9.63028 10.2847C9.60336 10.5005 9.4922 10.7075 9.32124 10.86C9.15027 11.0126 8.93352 11.0984 8.71866 11.0984Z" fill="#707070"/>
</svg>
