<svg width="34" height="36" viewBox="0 0 34 36" fill="none" xmlns="http://www.w3.org/2000/svg">
<g filter="url(#filter0_dd_3187_8612)">
<path d="M18.9304 13.0693C17.9065 12.0459 16.5181 11.4709 15.0704 11.4709C13.6227 11.4709 12.2343 12.0459 11.2104 13.0693L7.34912 16.9293C6.32522 17.9532 5.75 19.342 5.75 20.79C5.75 22.238 6.32522 23.6267 7.34912 24.6506C8.37302 25.6745 9.76173 26.2497 11.2097 26.2497C12.6578 26.2497 14.0465 25.6745 15.0704 24.6506L17.0004 22.7206" stroke="#393939" stroke-width="3" stroke-linecap="round" stroke-linejoin="round"/>
<path d="M15.0684 16.9294C16.0922 17.9529 17.4807 18.5278 18.9284 18.5278C20.376 18.5278 21.7645 17.9529 22.7884 16.9294L26.6496 13.0694C27.6735 12.0455 28.2487 10.6568 28.2487 9.20877C28.2487 7.76076 27.6735 6.37205 26.6496 5.34815C25.6257 4.32424 24.237 3.74902 22.789 3.74902C21.341 3.74902 19.9523 4.32424 18.9284 5.34815L16.9984 7.27815" stroke="#393939" stroke-width="3" stroke-linecap="round" stroke-linejoin="round"/>
</g>
<defs>
<filter id="filter0_dd_3187_8612" x="-2" y="0" width="38" height="38" filterUnits="userSpaceOnUse" color-interpolation-filters="sRGB">
<feFlood flood-opacity="0" result="BackgroundImageFix"/>
<feColorMatrix in="SourceAlpha" type="matrix" values="0 0 0 0 0 0 0 0 0 0 0 0 0 0 0 0 0 0 127 0" result="hardAlpha"/>
<feOffset dy="4"/>
<feGaussianBlur stdDeviation="2"/>
<feComposite in2="hardAlpha" operator="out"/>
<feColorMatrix type="matrix" values="0 0 0 0 0 0 0 0 0 0 0 0 0 0 0 0 0 0 0.25 0"/>
<feBlend mode="normal" in2="BackgroundImageFix" result="effect1_dropShadow_3187_8612"/>
<feColorMatrix in="SourceAlpha" type="matrix" values="0 0 0 0 0 0 0 0 0 0 0 0 0 0 0 0 0 0 127 0" result="hardAlpha"/>
<feOffset dy="4"/>
<feGaussianBlur stdDeviation="2"/>
<feComposite in2="hardAlpha" operator="out"/>
<feColorMatrix type="matrix" values="0 0 0 0 0 0 0 0 0 0 0 0 0 0 0 0 0 0 0.25 0"/>
<feBlend mode="normal" in2="effect1_dropShadow_3187_8612" result="effect2_dropShadow_3187_8612"/>
<feBlend mode="normal" in="SourceGraphic" in2="effect2_dropShadow_3187_8612" result="shape"/>
</filter>
</defs>
</svg>
