<svg width="17" height="22" viewBox="0 0 17 22" fill="none" xmlns="http://www.w3.org/2000/svg">
<path d="M14.875 2.75H11.3333C11.3333 1.2332 10.0628 0 8.5 0C6.93724 0 5.66667 1.2332 5.66667 2.75H2.125C0.951823 2.75 0 3.67383 0 4.8125V19.9375C0 21.0762 0.951823 22 2.125 22H14.875C16.0482 22 17 21.0762 17 19.9375V4.8125C17 3.67383 16.0482 2.75 14.875 2.75ZM4.25 18.2188C3.6612 18.2188 3.1875 17.759 3.1875 17.1875C3.1875 16.616 3.6612 16.1562 4.25 16.1562C4.8388 16.1562 5.3125 16.616 5.3125 17.1875C5.3125 17.759 4.8388 18.2188 4.25 18.2188ZM4.25 14.0938C3.6612 14.0938 3.1875 13.634 3.1875 13.0625C3.1875 12.491 3.6612 12.0312 4.25 12.0312C4.8388 12.0312 5.3125 12.491 5.3125 13.0625C5.3125 13.634 4.8388 14.0938 4.25 14.0938ZM4.25 9.96875C3.6612 9.96875 3.1875 9.50898 3.1875 8.9375C3.1875 8.36602 3.6612 7.90625 4.25 7.90625C4.8388 7.90625 5.3125 8.36602 5.3125 8.9375C5.3125 9.50898 4.8388 9.96875 4.25 9.96875ZM8.5 1.71875C9.0888 1.71875 9.5625 2.17852 9.5625 2.75C9.5625 3.32148 9.0888 3.78125 8.5 3.78125C7.9112 3.78125 7.4375 3.32148 7.4375 2.75C7.4375 2.17852 7.9112 1.71875 8.5 1.71875ZM14.1667 17.5312C14.1667 17.7203 14.0073 17.875 13.8125 17.875H7.4375C7.24271 17.875 7.08333 17.7203 7.08333 17.5312V16.8438C7.08333 16.6547 7.24271 16.5 7.4375 16.5H13.8125C14.0073 16.5 14.1667 16.6547 14.1667 16.8438V17.5312ZM14.1667 13.4062C14.1667 13.5953 14.0073 13.75 13.8125 13.75H7.4375C7.24271 13.75 7.08333 13.5953 7.08333 13.4062V12.7188C7.08333 12.5297 7.24271 12.375 7.4375 12.375H13.8125C14.0073 12.375 14.1667 12.5297 14.1667 12.7188V13.4062ZM14.1667 9.28125C14.1667 9.47031 14.0073 9.625 13.8125 9.625H7.4375C7.24271 9.625 7.08333 9.47031 7.08333 9.28125V8.59375C7.08333 8.40469 7.24271 8.25 7.4375 8.25H13.8125C14.0073 8.25 14.1667 8.40469 14.1667 8.59375V9.28125Z" fill="white"/>
</svg>
