<svg width="20" height="12" viewBox="0 0 20 12" fill="none" xmlns="http://www.w3.org/2000/svg">
<path d="M16.3973 7.18206L17.0727 6.09724H13.2921L13.8595 5.01242H17.3881L18.0635 3.92759H12.4465L13.0139 2.84277H18.2996L19.0542 1.75795H16.3538C16.4016 1.37433 16.2958 1.00643 16.0595 0.735172C15.8232 0.463915 15.4759 0.311523 15.0939 0.311523H7.32443C6.79007 0.311523 6.57036 1.64972 6.09161 3.20438H3.93124C3.09175 3.86298 2.54083 4.49315 1.41003 6.09724L0.958984 9.71331H2.39923C2.32746 10.2887 2.48623 10.8406 2.84063 11.2475C3.19502 11.6544 3.71601 11.8829 4.28897 11.8829C4.86194 11.8829 5.43995 11.6544 5.89585 11.2475C6.35175 10.8406 6.6482 10.2887 6.71997 9.71331H9.60047C9.52869 10.2887 9.68747 10.8406 10.0419 11.2475C10.3963 11.6544 10.9172 11.8829 11.4902 11.8829C12.0632 11.8829 12.6412 11.6544 13.0971 11.2475C13.553 10.8406 13.8494 10.2887 13.9212 9.71331H15.3615L15.6772 7.18206H16.3973ZM4.42429 10.7981C4.13781 10.7981 3.87731 10.6838 3.70011 10.4804C3.52292 10.2769 3.44353 10.001 3.47942 9.71331C3.51531 9.42559 3.66353 9.14967 3.89148 8.94622C4.11943 8.74278 4.40843 8.62849 4.69492 8.62849C4.9814 8.62849 5.24189 8.74278 5.41909 8.94622C5.59629 9.14967 5.67568 9.42559 5.63979 9.71331C5.6039 10.001 5.45568 10.2769 5.22773 10.4804C4.99978 10.6838 4.71077 10.7981 4.42429 10.7981ZM4.06915 4.19856C4.35701 4.19856 5.7448 4.19008 6.01266 4.19856C6.28052 4.20703 6.01266 6.14207 5.62396 6.14207C5.23526 6.14207 2.90304 6.14207 2.90304 6.14207C2.12563 6.14207 3.78129 4.19856 4.06915 4.19856ZM11.6255 10.7981C11.339 10.7981 11.0786 10.6838 10.9014 10.4804C10.7242 10.2769 10.6448 10.001 10.6807 9.71331C10.7165 9.42559 10.8648 9.14967 11.0927 8.94622C11.3207 8.74278 11.6097 8.62849 11.8962 8.62849C12.1826 8.62849 12.4431 8.74278 12.6203 8.94622C12.7975 9.14967 12.8769 9.42559 12.841 9.71331C12.8051 10.001 12.6569 10.2769 12.429 10.4804C12.201 10.6838 11.912 10.7981 11.6255 10.7981Z" fill="white"/>
</svg>
