<svg width="15" height="15" viewBox="0 0 15 15" fill="none" xmlns="http://www.w3.org/2000/svg">
<path d="M3.75 1.875C3.4375 1.875 3.1875 2 3 2.25L2.1875 3.25C2 3.5 1.875 3.75 1.875 4.0625V11.875C1.875 12.5625 2.4375 13.125 3.125 13.125H8.3125C8.1875 12.75 8.125 12.3125 8.125 11.875C8.125 9.8125 9.8125 8.125 11.875 8.125C12.3125 8.125 12.75 8.1875 13.125 8.3125V4.0625C13.125 3.75 13 3.5 12.8125 3.25L11.9375 2.1875C11.8125 2 11.5625 1.875 11.25 1.875H3.75ZM3.6875 2.5H11.1875L11.75 3.125H3.1875L3.6875 2.5ZM3.75 9.375H7.5V11.25H3.75V9.375ZM13.3125 9.875L11.0625 12.125L10.0625 11.125L9.375 11.875L11.125 13.75L14.125 10.75L13.3125 9.875Z" fill="#7654C9"/>
</svg>
