<svg width="16" height="16" viewBox="0 0 16 16" fill="none" xmlns="http://www.w3.org/2000/svg">
<g clip-path="url(#clip0_3129_8633)">
<path d="M11.1539 3.64209L2.2394 12.5786L1.69922 13.8863L3.00693 13.3461L11.9434 4.43157L11.1539 3.64209Z" stroke="#0C65C7" stroke-width="2.07683" stroke-linecap="round" stroke-linejoin="round"/>
<path d="M12.939 1.85863L12.5527 2.24452L13.3422 3.034L13.7284 2.64778C13.8298 2.54636 13.8867 2.40886 13.8867 2.26549C13.8867 2.12211 13.8298 1.98461 13.7284 1.88319L13.7039 1.85863C13.6536 1.8084 13.594 1.76855 13.5284 1.74137C13.4628 1.71419 13.3924 1.7002 13.3214 1.7002C13.2504 1.7002 13.18 1.71419 13.1144 1.74137C13.0488 1.76855 12.9892 1.8084 12.939 1.85863Z" stroke="#0C65C7" stroke-width="2.07683" stroke-linecap="round" stroke-linejoin="round"/>
</g>
<defs>
<clipPath id="clip0_3129_8633">
<rect width="15" height="15" fill="white" transform="translate(0.5 0.5)"/>
</clipPath>
</defs>
</svg>
