<svg width="18" height="18" viewBox="0 0 18 18" fill="none" xmlns="http://www.w3.org/2000/svg">
<path d="M10.2869 7.71306C9.60433 7.03075 8.67871 6.64746 7.71358 6.64746C6.74846 6.64746 5.82284 7.03075 5.14025 7.71306L2.56608 10.2864C1.88348 10.969 1.5 11.8948 1.5 12.8601C1.5 13.8255 1.88348 14.7513 2.56608 15.4339C3.24868 16.1165 4.17449 16.5 5.13983 16.5C6.10518 16.5 7.03098 16.1165 7.71358 15.4339L9.00025 14.1472" stroke="#9E9E9E" stroke-width="2" stroke-linecap="round" stroke-linejoin="round"/>
<path d="M7.71289 10.2862C8.39548 10.9685 9.3211 11.3518 10.2862 11.3518C11.2513 11.3518 12.177 10.9685 12.8596 10.2862L15.4337 7.71285C16.1163 7.03025 16.4998 6.10444 16.4998 5.1391C16.4998 4.17376 16.1163 3.24795 15.4337 2.56535C14.7511 1.88275 13.8253 1.49927 12.86 1.49927C11.8946 1.49927 10.9688 1.88275 10.2862 2.56535L8.99956 3.85202" stroke="#9E9E9E" stroke-width="2" stroke-linecap="round" stroke-linejoin="round"/>
</svg>
