<svg width="30" height="30" viewBox="0 0 30 30" fill="none" xmlns="http://www.w3.org/2000/svg">
<path d="M19.9656 20.185C20.3119 18.9721 20.541 17.5629 20.6283 16.21C20.6302 16.1746 20.6249 16.1393 20.6126 16.1061C20.6003 16.0729 20.5813 16.0426 20.5568 16.017C20.5323 15.9915 20.5028 15.9712 20.4701 15.9576C20.4375 15.9439 20.4024 15.9371 20.367 15.9375H16.2033C16.1692 15.9372 16.1354 15.9436 16.1038 15.9564C16.0722 15.9691 16.0434 15.988 16.0191 16.0119C15.9948 16.0358 15.9754 16.0642 15.9621 16.0956C15.9487 16.127 15.9417 16.1607 15.9414 16.1947V19.435C15.9421 19.5004 15.9675 19.5632 16.0125 19.6108C16.0574 19.6583 16.1187 19.6872 16.184 19.6916C17.3573 19.7864 18.5167 20.0103 19.641 20.359C19.7071 20.3789 19.7784 20.3717 19.8393 20.3391C19.9002 20.3065 19.9456 20.2511 19.9656 20.185Z" fill="#white"/>
<path d="M18.9596 22.108C18.0676 21.8475 17.1536 21.6692 16.2291 21.5753C16.1934 21.5713 16.1572 21.5748 16.123 21.5856C16.0887 21.5963 16.057 21.614 16.0299 21.6377C16.0029 21.6613 15.981 21.6903 15.9658 21.7229C15.9505 21.7554 15.9422 21.7908 15.9414 21.8267V25.6494C15.9428 25.695 15.9561 25.7394 15.98 25.7783C16.0038 25.8172 16.0374 25.8491 16.0774 25.871C16.1175 25.893 16.1625 25.904 16.2081 25.9032C16.2537 25.9023 16.2983 25.8895 16.3375 25.8662C17.2691 25.323 18.0367 24.4107 18.7305 23.2042C18.8441 23.0074 19.017 22.6681 19.1213 22.4607C19.1375 22.4273 19.1461 22.3908 19.1465 22.3537C19.1469 22.3166 19.1391 22.2799 19.1236 22.2462C19.1082 22.2124 19.0855 22.1826 19.0571 22.1587C19.0287 22.1348 18.9954 22.1175 18.9596 22.108Z" fill="#white"/>
<path d="M13.7867 21.586C12.8633 21.6738 11.95 21.8468 11.0585 22.1028C10.9038 22.1473 10.8388 22.3606 10.9091 22.5006C11.014 22.7092 11.1435 22.9758 11.2542 23.175C12.0159 24.5227 12.8269 25.3723 13.6706 25.8663C13.7098 25.8896 13.7544 25.9024 13.8 25.9033C13.8456 25.9041 13.8907 25.893 13.9307 25.8711C13.9707 25.8492 14.0043 25.8173 14.0282 25.7784C14.052 25.7395 14.0653 25.6951 14.0667 25.6495V21.825C14.0664 21.7901 14.0587 21.7557 14.0439 21.724C14.0292 21.6924 14.0078 21.6643 13.9812 21.6416C13.9547 21.6189 13.9236 21.6022 13.89 21.5926C13.8564 21.583 13.8212 21.5808 13.7867 21.586Z" fill="#white"/>
<path d="M13.8043 15.9375H9.64059C9.60524 15.9371 9.57018 15.9439 9.53758 15.9575C9.50497 15.9712 9.47551 15.9913 9.45101 16.0168C9.42652 16.0423 9.40751 16.0726 9.39517 16.1057C9.38283 16.1388 9.37741 16.1741 9.37926 16.2094C9.46598 17.5606 9.69391 18.9727 10.039 20.1844C10.0488 20.2176 10.0651 20.2484 10.0869 20.2753C10.1087 20.3021 10.1356 20.3243 10.1661 20.3407C10.1966 20.357 10.23 20.3672 10.2644 20.3705C10.2988 20.3739 10.3335 20.3704 10.3666 20.3602C11.4908 20.0114 12.6502 19.7882 13.8236 19.6946C13.889 19.6903 13.9504 19.6615 13.9955 19.6139C14.0406 19.5663 14.066 19.5035 14.0668 19.4379V16.1953C14.0665 16.1611 14.0595 16.1273 14.0462 16.0959C14.0329 16.0644 14.0135 16.0358 13.9891 16.0119C13.9647 15.9879 13.9358 15.969 13.9041 15.9563C13.8724 15.9435 13.8384 15.9371 13.8043 15.9375Z" fill="#white"/>
<path d="M16.2311 8.42462C17.1549 8.33805 18.0677 8.15863 18.9557 7.88907C18.9913 7.87944 19.0244 7.86209 19.0526 7.83825C19.0808 7.81442 19.1034 7.78468 19.1188 7.75114C19.1342 7.7176 19.1421 7.68108 19.1419 7.64417C19.1416 7.60725 19.1333 7.57084 19.1174 7.53751C19.0125 7.32833 18.8672 7.02892 18.7559 6.82911C18.0357 5.54005 17.2242 4.64063 16.3395 4.1338C16.3003 4.11059 16.2557 4.09798 16.2101 4.09721C16.1646 4.09643 16.1196 4.10753 16.0797 4.1294C16.0397 4.15127 16.0061 4.18317 15.9822 4.22195C15.9583 4.26073 15.9449 4.30507 15.9434 4.3506V8.17267C15.9442 8.20861 15.9525 8.24399 15.9677 8.27655C15.983 8.30912 16.0048 8.33817 16.0318 8.36186C16.0589 8.38554 16.0906 8.40335 16.1249 8.41416C16.1592 8.42496 16.1953 8.42852 16.2311 8.42462Z" fill="#white"/>
<path d="M16.2033 14.0626H20.367C20.4021 14.0632 20.4369 14.0566 20.4693 14.0432C20.5018 14.0299 20.5311 14.01 20.5556 13.9849C20.5801 13.9597 20.5992 13.9299 20.6117 13.8971C20.6242 13.8643 20.6298 13.8293 20.6283 13.7942C20.5416 12.4601 20.3195 10.9935 19.9744 9.79698C19.9643 9.76408 19.9478 9.7335 19.9259 9.70699C19.9039 9.68049 19.877 9.65857 19.8465 9.64251C19.8161 9.62645 19.7828 9.61656 19.7485 9.61341C19.7143 9.61025 19.6797 9.61389 19.6469 9.62412C18.5336 9.96045 17.374 10.2353 16.1846 10.3272C16.1196 10.3309 16.0584 10.3591 16.0133 10.406C15.9682 10.453 15.9425 10.5153 15.9414 10.5804V13.8095C15.9426 13.8778 15.9709 13.9428 16.02 13.9902C16.0691 14.0377 16.135 14.0637 16.2033 14.0626Z" fill="#white"/>
<path d="M13.6709 4.13442C12.7674 4.63657 11.9617 5.56587 11.241 6.85141C11.1291 7.05122 10.9955 7.32661 10.8895 7.5352C10.8737 7.56855 10.8654 7.60494 10.8652 7.64182C10.865 7.67871 10.8729 7.71519 10.8883 7.7487C10.9038 7.78221 10.9263 7.81193 10.9545 7.83579C10.9826 7.85964 11.0156 7.87704 11.0512 7.88676C11.9388 8.16127 12.8528 8.34137 13.7781 8.42407C13.8138 8.42797 13.85 8.42443 13.8842 8.41366C13.9185 8.40289 13.9501 8.38513 13.9771 8.36151C14.0042 8.33788 14.026 8.3089 14.0413 8.27641C14.0566 8.24391 14.0649 8.2086 14.0658 8.1727V4.35122C14.064 4.30593 14.0505 4.2619 14.0266 4.22338C14.0027 4.18485 13.9693 4.15315 13.9296 4.13134C13.8898 4.10953 13.8452 4.09836 13.7998 4.0989C13.7545 4.09943 13.7101 4.11167 13.6709 4.13442Z" fill="#white"/>
<path d="M13.8229 10.3277C12.6334 10.2369 11.4727 9.96211 10.3606 9.62461C10.3277 9.61438 10.2932 9.61074 10.2589 9.61389C10.2247 9.61705 10.1914 9.62694 10.1609 9.643C10.1305 9.65906 10.1035 9.68097 10.0816 9.70748C10.0596 9.73399 10.0431 9.76457 10.0331 9.79747C9.68794 10.9939 9.46587 12.4606 9.37915 13.7947C9.37763 13.8298 9.38329 13.8648 9.39579 13.8976C9.40829 13.9303 9.42737 13.9602 9.45185 13.9854C9.47633 14.0105 9.50569 14.0304 9.53813 14.0437C9.57057 14.0571 9.6054 14.0637 9.64048 14.0631H13.8041C13.8381 14.0636 13.8717 14.0575 13.9033 14.045C13.9348 14.0325 13.9635 14.0139 13.9879 13.9903C14.0122 13.9667 14.0316 13.9385 14.045 13.9073C14.0585 13.8762 14.0656 13.8427 14.0661 13.8088V10.5809C14.065 10.5158 14.0393 10.4535 13.9942 10.4065C13.9491 10.3596 13.8879 10.3314 13.8229 10.3277Z" fill="#white"/>
<path d="M24.2814 5.71937C23.0648 4.49075 21.6175 3.51462 20.0225 2.84705C18.4276 2.17949 16.7164 1.83364 14.9874 1.82939C13.2584 1.82513 11.5455 2.16255 9.94728 2.82225C8.34905 3.48196 6.89691 4.45096 5.6743 5.67357C4.45169 6.89618 3.48269 8.34832 2.82299 9.94655C2.16328 11.5448 1.82586 13.2576 1.83012 14.9867C1.83437 16.7157 2.18022 18.4268 2.84779 20.0218C3.51535 21.6168 4.49148 23.0641 5.7201 24.2807C6.93668 25.5093 8.38403 26.4854 9.97899 27.153C11.574 27.8206 13.2851 28.1664 15.0141 28.1707C16.7432 28.1749 18.456 27.8375 20.0542 27.1778C21.6525 26.5181 23.1046 25.5491 24.3272 24.3265C25.5498 23.1039 26.5188 21.6517 27.1785 20.0535C27.8382 18.4553 28.1757 16.7424 28.1714 15.0134C28.1672 13.2844 27.8213 11.5732 27.1537 9.97826C26.4862 8.38329 25.51 6.93595 24.2814 5.71937ZM10.3484 25.2451C10.0844 24.8744 9.84032 24.4899 9.61717 24.0932C9.49998 23.877 9.33358 23.5506 9.22283 23.3239C9.19745 23.2701 9.16111 23.2222 9.11614 23.1832C9.07118 23.1443 9.01858 23.1152 8.96171 23.0978C8.90484 23.0803 8.84496 23.075 8.7859 23.082C8.72684 23.0891 8.6699 23.1084 8.61873 23.1387C8.36678 23.2799 8.03279 23.4739 7.7908 23.6326C7.28333 23.2469 6.82015 22.8061 6.40975 22.3184C6.9773 21.9178 7.57277 21.5583 8.19158 21.2426C8.30057 21.184 8.35389 21.1172 8.31932 20.9977C7.86593 19.4285 7.58902 17.8136 7.49373 16.183C7.49089 16.1178 7.46321 16.0562 7.41635 16.0108C7.3695 15.9653 7.30704 15.9395 7.24178 15.9387H3.91717C3.88891 15.939 3.86148 15.9291 3.83995 15.9108C3.81841 15.8925 3.80422 15.867 3.79998 15.8391C3.76316 15.561 3.74671 15.2805 3.75076 15C3.74676 14.7201 3.7636 14.4402 3.80115 14.1627C3.80539 14.1348 3.81958 14.1093 3.84112 14.091C3.86265 14.0727 3.89008 14.0628 3.91834 14.0631H7.24295C7.37713 14.0631 7.48729 13.9858 7.49432 13.8504C7.58835 12.2266 7.86349 10.6184 8.31463 9.05569C8.33143 8.99865 8.32781 8.93754 8.30438 8.88288C8.28096 8.82823 8.2392 8.78345 8.18631 8.75628C7.58078 8.44601 6.99667 8.09562 6.43787 7.70745C6.8461 7.21984 7.30013 6.77248 7.79373 6.37151C8.03279 6.52855 8.34451 6.70608 8.59412 6.84671C8.64913 6.87798 8.70997 6.89762 8.77288 6.90442C8.83578 6.91123 8.89942 6.90505 8.95984 6.88626C9.02026 6.86747 9.07618 6.83649 9.12414 6.79521C9.1721 6.75394 9.21107 6.70326 9.23865 6.64632C9.34881 6.41956 9.47303 6.16702 9.59373 5.95023C9.81785 5.54864 10.0631 5.15922 10.3285 4.78362C11.7895 4.09534 13.3858 3.74221 15.0008 3.75003C16.6965 3.75003 18.2762 4.16019 19.7193 4.83167C19.9741 5.18945 20.2089 5.56111 20.4224 5.94495C20.5742 6.218 20.7353 6.55257 20.8713 6.84261C20.8859 6.87349 20.9066 6.90108 20.9322 6.92368C20.9578 6.94628 20.9878 6.96343 21.0203 6.97406C21.0527 6.9847 21.087 6.98861 21.121 6.98555C21.1551 6.9825 21.1881 6.97254 21.2181 6.95628C21.5334 6.78577 21.875 6.58948 22.1756 6.39202C22.6706 6.79692 23.1258 7.24819 23.5349 7.73968C22.9914 8.1166 22.4225 8.4555 21.8322 8.75394C21.7792 8.78114 21.7374 8.82604 21.7141 8.88084C21.6908 8.93564 21.6874 8.99689 21.7045 9.05394C22.1629 10.606 22.4354 12.2071 22.516 13.8235C22.5191 13.8883 22.547 13.9495 22.5939 13.9944C22.6408 14.0393 22.703 14.0645 22.768 14.0649L26.0855 14.0608C26.1138 14.0605 26.1412 14.0704 26.1628 14.0887C26.1843 14.107 26.1985 14.1324 26.2027 14.1604C26.2711 14.7173 26.2711 15.2804 26.2027 15.8373C26.1987 15.8655 26.1847 15.8912 26.1631 15.9098C26.1415 15.9283 26.114 15.9384 26.0855 15.9381H22.765C22.6997 15.9388 22.6372 15.9645 22.5903 16.01C22.5434 16.0555 22.5158 16.1172 22.5131 16.1825C22.4218 17.7958 22.1492 19.3938 21.7004 20.9461C21.6834 21.0038 21.6869 21.0656 21.7103 21.1211C21.7337 21.1765 21.7755 21.2221 21.8287 21.2502C22.1217 21.402 22.448 21.5713 22.7293 21.7436C23.0105 21.9159 23.2889 22.0998 23.5572 22.2909C23.1512 22.78 22.7 23.2299 22.2096 23.6344C22.0666 23.5401 21.8967 23.4328 21.7502 23.345C21.6494 23.2864 21.4637 23.1826 21.3605 23.1246C21.1367 22.9993 20.8988 23.093 20.7869 23.3239C20.675 23.5547 20.5039 23.8858 20.3844 24.1002C20.1641 24.4945 19.9225 24.8765 19.6607 25.2446C18.2181 25.9201 16.6965 26.25 15.0008 26.25C13.3051 26.25 11.7916 25.9202 10.3484 25.2451Z" fill="#white"/>
</svg>
