<svg width="30" height="30" viewBox="0 0 30 30" fill="none" xmlns="http://www.w3.org/2000/svg">
<path d="M24.1522 6.95273C23.9624 6.85462 23.7776 6.74706 23.5985 6.63047C23.0778 6.2862 22.6003 5.88056 22.1764 5.42227C21.1159 4.20879 20.7198 2.97773 20.5739 2.11582H20.5798C20.4579 1.40039 20.5083 0.9375 20.5159 0.9375H15.6854V19.616C15.6854 19.8668 15.6854 20.1146 15.6749 20.3596C15.6749 20.39 15.6719 20.4182 15.6702 20.451C15.6702 20.4645 15.6702 20.4785 15.6673 20.4926C15.6673 20.4961 15.6673 20.4996 15.6673 20.5031C15.6163 21.1733 15.4015 21.8207 15.0417 22.3884C14.6818 22.956 14.188 23.4266 13.6036 23.7586C12.9945 24.1051 12.3057 24.2868 11.6049 24.2859C9.35436 24.2859 7.53034 22.4508 7.53034 20.1844C7.53034 17.918 9.35436 16.0828 11.6049 16.0828C12.031 16.0824 12.4544 16.1495 12.8594 16.2814L12.8653 11.3631C11.6356 11.2042 10.3864 11.302 9.19638 11.6501C8.00637 11.9982 6.90142 12.5892 5.95124 13.3857C5.11866 14.1091 4.41871 14.9723 3.88288 15.9363C3.67897 16.2879 2.90964 17.7006 2.81647 19.9934C2.75788 21.2947 3.1487 22.643 3.33503 23.2002V23.2119C3.45221 23.54 3.90632 24.6598 4.64635 25.6037C5.24309 26.3609 5.94812 27.026 6.73874 27.5777V27.566L6.75046 27.5777C9.08893 29.1668 11.6817 29.0625 11.6817 29.0625C12.1305 29.0443 13.6341 29.0625 15.3415 28.2533C17.2352 27.3563 18.3133 26.0197 18.3133 26.0197C19.0021 25.2211 19.5498 24.3111 19.9329 23.3285C20.37 22.1795 20.5159 20.8014 20.5159 20.2506V10.3412C20.5745 10.3764 21.3549 10.8926 21.3549 10.8926C21.3549 10.8926 22.4794 11.6133 24.2337 12.0826C25.4923 12.4166 27.188 12.4869 27.188 12.4869V7.6916C26.5938 7.75605 25.3874 7.56855 24.1522 6.95273Z" fill="#9E9E9E"/>
</svg>
