<svg width="30" height="30" viewBox="0 0 30 30" fill="none" xmlns="http://www.w3.org/2000/svg">
<g clip-path="url(#clip0_3187_8693)">
<path d="M29.8035 8.71816C29.8035 6.08144 27.864 3.96035 25.4675 3.96035C22.2215 3.80859 18.9109 3.75 15.5277 3.75H14.473C11.098 3.75 7.78161 3.80859 4.53551 3.96094C2.14489 3.96094 0.205434 6.09375 0.205434 8.73047C0.0589501 10.8158 -0.00315931 12.9018 0.000356313 14.9877C-0.00550306 17.0736 0.0609032 19.1615 0.199575 21.2514C0.199575 23.8881 2.13903 26.0268 4.52965 26.0268C7.93981 26.185 11.4379 26.2553 14.9945 26.2494C18.557 26.2611 22.0453 26.1869 25.4593 26.0268C27.8558 26.0268 29.7953 23.8881 29.7953 21.2514C29.9359 19.1596 30.0004 17.0736 29.9945 14.9818C30.0078 12.8959 29.9441 10.808 29.8035 8.71816ZM12.1293 20.7357V9.22207L20.6254 14.976L12.1293 20.7357Z" fill="#white"/>
</g>
<defs>
<clipPath id="clip0_3187_8693">
<rect width="30" height="30" fill="white"/>
</clipPath>
</defs>
</svg>
